<?xml version="1.0" encoding="UTF-8" standalone="no"?>
<!-- Created with Inkscape (http://www.inkscape.org/) -->

<svg
   xmlns:dc="http://purl.org/dc/elements/1.1/"
   xmlns:cc="http://creativecommons.org/ns#"
   xmlns:rdf="http://www.w3.org/1999/02/22-rdf-syntax-ns#"
   xmlns:svg="http://www.w3.org/2000/svg"
   xmlns="http://www.w3.org/2000/svg"
   xmlns:sodipodi="http://sodipodi.sourceforge.net/DTD/sodipodi-0.dtd"
   xmlns:inkscape="http://www.inkscape.org/namespaces/inkscape"
   width="210mm"
   height="297mm"
   viewBox="0 0 210 297"
   version="1.1"
   id="svg8"
   inkscape:version="0.92.5 (2060ec1f9f, 2020-04-08)"
   sodipodi:docname="celular-arduino-export.svg">
  <defs
     id="defs2" />
  <sodipodi:namedview
     id="base"
     pagecolor="#ffffff"
     bordercolor="#666666"
     borderopacity="1.0"
     inkscape:pageopacity="0.0"
     inkscape:pageshadow="2"
     inkscape:zoom="2.8"
     inkscape:cx="378.70436"
     inkscape:cy="472.32912"
     inkscape:document-units="mm"
     inkscape:current-layer="g2536"
     showgrid="false"
     inkscape:window-width="1852"
     inkscape:window-height="1016"
     inkscape:window-x="68"
     inkscape:window-y="27"
     inkscape:window-maximized="1"
     showguides="true"
     inkscape:guide-bbox="true" />
  <metadata
     id="metadata5">
    <rdf:RDF>
      <cc:Work
         rdf:about="">
        <dc:format>image/svg+xml</dc:format>
        <dc:type
           rdf:resource="http://purl.org/dc/dcmitype/StillImage" />
        <dc:title />
      </cc:Work>
    </rdf:RDF>
  </metadata>
  <g
     inkscape:label="Layer 1"
     inkscape:groupmode="layer"
     id="layer1">
    <text
       xml:space="preserve"
       style="font-style:normal;font-weight:normal;font-size:4.23333311px;line-height:1.25;font-family:sans-serif;letter-spacing:0px;word-spacing:0px;fill:#000000;fill-opacity:1;stroke:none;stroke-width:0.26458332"
       x="-6.0948658"
       y="101.35007"
       id="text1021"><tspan
         sodipodi:role="line"
         id="tspan1019"
         x="-6.0948658"
         y="105.09557"
         style="stroke-width:0.26458332" /></text>
    <g
       id="g2536"
       transform="translate(11.035713,16.458336)">
      <rect
         style="fill:none;fill-opacity:1;stroke:#000000;stroke-width:0.09487111;stroke-linejoin:round;stroke-miterlimit:4;stroke-dasharray:none;stroke-dashoffset:0;stroke-opacity:1"
         id="rect2002"
         width="70"
         height="150"
         x="58.964287"
         y="57.041664"
         ry="5.1763096" />
      <g
         id="g2010"
         transform="matrix(1.0000681,0,0,0.87675922,17.409571,29.410581)">
        <rect
           y="65.744316"
           x="51.049477"
           height="41"
           width="51"
           id="rect2004"
           style="fill:#ffffff;fill-opacity:1;stroke:#000000;stroke-width:0.065;stroke-linejoin:round;stroke-miterlimit:4;stroke-dasharray:none;stroke-dashoffset:0;stroke-opacity:1" />
      </g>
      <g
         aria-label="4"
         style="font-style:normal;font-weight:normal;font-size:7.76111126px;line-height:1.25;font-family:sans-serif;letter-spacing:0px;word-spacing:0px;fill:#000000;fill-opacity:1;stroke:none;stroke-width:0.60605621"
         id="text2074"
         transform="translate(0,-1.5875)">
        <path
           d="m 73.030383,164.46628 q -0.302684,0.39581 -0.644172,0.86148 -0.341489,0.46567 -0.574323,0.95462 h 1.218495 z m 1.133122,-1.41252 v 3.22862 h 0.574322 v 0.94685 h -0.574322 v 1.20298 h -1.133122 v -1.20298 h -2.320572 v -0.84596 q 0.170744,-0.34149 0.426861,-0.76835 0.256116,-0.43462 0.566561,-0.88476 0.318205,-0.45791 0.667455,-0.89253 0.34925,-0.43462 0.6985,-0.78387 z"
           style="font-style:normal;font-variant:normal;font-weight:bold;font-stretch:normal;font-family:Ubuntu;-inkscape-font-specification:'Ubuntu Bold';stroke-width:0.60605621"
           id="path2775"
           inkscape:connector-curvature="0" />
      </g>
      <g
         aria-label="5"
         style="font-style:normal;font-weight:normal;font-size:7.76111126px;line-height:1.25;font-family:sans-serif;letter-spacing:0px;word-spacing:0px;fill:#000000;fill-opacity:1;stroke:none;stroke-width:0.60605621"
         id="text2078"
         transform="translate(0,-1.5875)">
        <path
           d="m 90.257013,166.79073 q 0,-0.22508 -0.100895,-0.39582 -0.100894,-0.17851 -0.34925,-0.29492 -0.248355,-0.11642 -0.667455,-0.17851 -0.4191,-0.0621 -1.055511,-0.0621 0.08537,-0.72178 0.1397,-1.46685 0.05433,-0.74506 0.08537,-1.397 h 2.910417 v 0.97014 h -1.940278 q -0.01552,0.2794 -0.03881,0.54328 -0.01552,0.25612 -0.0388,0.45014 1.133122,0.0776 1.668639,0.53552 0.543277,0.45015 0.543277,1.2573 0,0.37253 -0.131939,0.69074 -0.131938,0.31821 -0.395816,0.55104 -0.263878,0.23283 -0.667456,0.36477 -0.395816,0.13194 -0.931333,0.13194 -0.20955,0 -0.442384,-0.031 -0.225072,-0.0233 -0.442383,-0.0699 -0.20955,-0.0388 -0.380294,-0.0854 -0.170745,-0.0466 -0.263878,-0.0931 l 0.20955,-0.95462 q 0.194028,0.0854 0.512233,0.17075 0.318206,0.0776 0.760589,0.0776 0.535517,0 0.776111,-0.20955 0.240595,-0.21731 0.240595,-0.50447 z"
           style="font-style:normal;font-variant:normal;font-weight:bold;font-stretch:normal;font-family:Ubuntu;-inkscape-font-specification:'Ubuntu Bold';stroke-width:0.60605621"
           id="path2772"
           inkscape:connector-curvature="0" />
      </g>
      <g
         aria-label="6"
         style="font-style:normal;font-weight:normal;font-size:7.76111126px;line-height:1.25;font-family:sans-serif;letter-spacing:0px;word-spacing:0px;fill:#000000;fill-opacity:1;stroke:none;stroke-width:0.60605621"
         id="text2082"
         transform="translate(0,-1.5875)">
        <path
           d="m 106.24559,165.86716 q -0.17074,0 -0.36477,0.031 -0.19403,0.031 -0.30268,0.0854 0,0.0311 -0.008,0.0931 0,0.0621 0,0.10865 0,0.2794 0.0388,0.52776 0.0388,0.24835 0.13194,0.43462 0.0931,0.18627 0.24836,0.29492 0.15522,0.1009 0.38805,0.1009 0.19403,0 0.32597,-0.0776 0.1397,-0.0854 0.22507,-0.20955 0.0931,-0.12417 0.13194,-0.27163 0.0466,-0.15523 0.0466,-0.29493 0,-0.39581 -0.20179,-0.60536 -0.19403,-0.21731 -0.6597,-0.21731 z m 0.14746,-0.90029 q 0.50448,0 0.85373,0.1397 0.35701,0.13194 0.58208,0.36477 0.22507,0.23283 0.32597,0.54328 0.10089,0.31044 0.10089,0.65969 0,0.31045 -0.11642,0.63641 -0.10865,0.32597 -0.34148,0.58985 -0.22508,0.26387 -0.58209,0.43462 -0.34925,0.17074 -0.83044,0.17074 -0.97014,0 -1.47461,-0.61312 -0.50447,-0.61313 -0.50447,-1.69193 0,-0.77611 0.24059,-1.37371 0.2406,-0.59761 0.68298,-1.00119 0.45015,-0.41134 1.0788,-0.62089 0.63641,-0.21731 1.42804,-0.22507 0.0155,0.2406 0.0311,0.47343 0.0155,0.22507 0.031,0.47343 -0.39582,0.008 -0.74507,0.0776 -0.34149,0.0621 -0.62865,0.20179 -0.2794,0.1397 -0.48895,0.36477 -0.20955,0.21731 -0.32596,0.53552 0.17074,-0.0776 0.34925,-0.10866 0.1785,-0.031 0.33372,-0.031 z"
           style="font-style:normal;font-variant:normal;font-weight:bold;font-stretch:normal;font-family:Ubuntu;-inkscape-font-specification:'Ubuntu Bold';stroke-width:0.60605621"
           id="path2769"
           inkscape:connector-curvature="0" />
      </g>
      <g
         aria-label="7"
         style="font-style:normal;font-weight:normal;font-size:7.76111126px;line-height:1.25;font-family:sans-serif;letter-spacing:0px;word-spacing:0px;fill:#000000;fill-opacity:1;stroke:none;stroke-width:0.60605621"
         id="text2086"
         transform="translate(0,-1.5875)">
        <path
           d="m 71.893582,179.01041 q 0.04657,-0.56656 0.194027,-1.17969 0.147462,-0.61313 0.357012,-1.20297 0.217311,-0.58985 0.481189,-1.10984 0.263877,-0.52776 0.535516,-0.90805 h -2.336094 v -0.98566 h 3.764139 v 0.8382 q -0.248356,0.27163 -0.551039,0.75282 -0.294922,0.48119 -0.566561,1.09432 -0.263878,0.60537 -0.465667,1.30387 -0.194028,0.6985 -0.240594,1.397 z"
           style="font-style:normal;font-variant:normal;font-weight:bold;font-stretch:normal;font-family:Ubuntu;-inkscape-font-specification:'Ubuntu Bold';stroke-width:0.60605621"
           id="path2766"
           inkscape:connector-curvature="0" />
      </g>
      <g
         aria-label="8"
         style="font-style:normal;font-weight:normal;font-size:7.76111126px;line-height:1.25;font-family:sans-serif;letter-spacing:0px;word-spacing:0px;fill:#000000;fill-opacity:1;stroke:none;stroke-width:0.60605621"
         id="text2090"
         transform="translate(0,-1.5875)">
        <path
           d="m 91.753213,177.51639 q 0,0.34925 -0.124178,0.64417 -0.116417,0.28716 -0.357011,0.50447 -0.240594,0.21731 -0.605367,0.34149 -0.357011,0.11642 -0.830439,0.11642 -0.543277,0 -0.90805,-0.14746 -0.357011,-0.15523 -0.582083,-0.3803 -0.217311,-0.22507 -0.310444,-0.48895 -0.09313,-0.27164 -0.09313,-0.49671 0,-0.23283 0.06209,-0.42686 0.06209,-0.19403 0.170745,-0.34925 0.108655,-0.16298 0.240594,-0.29492 0.1397,-0.13194 0.294922,-0.24836 -0.333728,-0.27164 -0.496711,-0.53551 -0.155222,-0.26388 -0.155222,-0.67522 0,-0.31045 0.124178,-0.59761 0.131939,-0.28716 0.364772,-0.49671 0.232833,-0.21731 0.5588,-0.34149 0.333728,-0.13194 0.737306,-0.13194 0.473427,0 0.807155,0.1397 0.341489,0.13194 0.5588,0.34149 0.217311,0.20955 0.310445,0.47343 0.100894,0.25612 0.100894,0.51223 0,0.37254 -0.201789,0.6985 -0.194028,0.31821 -0.48895,0.50448 0.442383,0.28716 0.62865,0.60536 0.194028,0.31045 0.194028,0.72955 z m -2.685345,0.0466 q 0,0.0931 0.03881,0.20955 0.04657,0.10866 0.1397,0.20179 0.09313,0.0931 0.240594,0.15523 0.147462,0.0621 0.357012,0.0621 0.403577,0 0.589844,-0.19402 0.186267,-0.19403 0.186267,-0.43463 0,-0.1785 -0.08537,-0.3182 -0.07761,-0.1397 -0.217311,-0.2406 -0.1397,-0.10865 -0.333727,-0.18626 -0.186267,-0.0854 -0.403578,-0.15522 -0.217311,0.16298 -0.364773,0.38029 -0.147461,0.21731 -0.147461,0.51999 z m 1.435806,-2.5534 q 0,-0.0854 -0.03881,-0.17851 -0.03104,-0.10089 -0.116416,-0.18626 -0.07761,-0.0854 -0.201789,-0.1397 -0.124178,-0.0621 -0.302683,-0.0621 -0.170745,0 -0.294923,0.0543 -0.124177,0.0543 -0.20955,0.14746 -0.07761,0.0854 -0.116416,0.18626 -0.03881,0.1009 -0.03881,0.19403 0,0.24836 0.178506,0.46567 0.186266,0.21731 0.62865,0.37253 0.248355,-0.15522 0.380294,-0.35701 0.131939,-0.20179 0.131939,-0.49671 z"
           style="font-style:normal;font-variant:normal;font-weight:bold;font-stretch:normal;font-family:Ubuntu;-inkscape-font-specification:'Ubuntu Bold';stroke-width:0.60605621"
           id="path2763"
           inkscape:connector-curvature="0" />
      </g>
      <g
         aria-label="9"
         style="font-style:normal;font-weight:normal;font-size:7.76111126px;line-height:1.25;font-family:sans-serif;letter-spacing:0px;word-spacing:0px;fill:#000000;fill-opacity:1;stroke:none;stroke-width:0.60605621"
         id="text2094"
         transform="translate(0,-1.5875)">
        <path
           d="m 106.71147,176.17759 q 0.17851,0 0.37254,-0.031 0.19403,-0.0388 0.28716,-0.10089 v -0.0699 q 0,-0.031 0,-0.0621 0.008,-0.0311 0.008,-0.0543 -0.008,-0.2794 -0.0466,-0.52 -0.0388,-0.24835 -0.13194,-0.42686 -0.0931,-0.18626 -0.25611,-0.28716 -0.15522,-0.10865 -0.38806,-0.10865 -0.18626,0 -0.32596,0.0776 -0.1397,0.0776 -0.22508,0.20179 -0.0854,0.12417 -0.13194,0.27164 -0.0388,0.14746 -0.0388,0.28716 0,0.4191 0.20179,0.62089 0.20955,0.20178 0.67521,0.20178 z m 0.56657,0.75283 q -0.16299,0.0776 -0.36478,0.11642 -0.19402,0.031 -0.33372,0.031 -0.50448,0 -0.86149,-0.11641 -0.35701,-0.12418 -0.58984,-0.34149 -0.22507,-0.22507 -0.33373,-0.53552 -0.10866,-0.31044 -0.10866,-0.68298 0,-0.31044 0.1009,-0.63641 0.10865,-0.32596 0.33373,-0.58984 0.22507,-0.27164 0.56656,-0.44239 0.34925,-0.1785 0.8382,-0.1785 1.00118,0 1.50565,0.62089 0.51224,0.61313 0.51224,1.76953 0,0.76059 -0.20179,1.34267 -0.19403,0.58209 -0.61313,0.9779 -0.41134,0.39582 -1.05551,0.60537 -0.64417,0.20179 -1.52894,0.20955 -0.008,-0.24836 -0.0233,-0.48119 -0.0155,-0.23283 -0.0311,-0.48119 0.44239,-0.008 0.7994,-0.0621 0.35701,-0.0621 0.62865,-0.19402 0.27164,-0.1397 0.4579,-0.36478 0.19403,-0.22507 0.30269,-0.56656 z"
           style="font-style:normal;font-variant:normal;font-weight:bold;font-stretch:normal;font-family:Ubuntu;-inkscape-font-specification:'Ubuntu Bold';stroke-width:0.60605621"
           id="path2760"
           inkscape:connector-curvature="0" />
      </g>
      <g
         aria-label="0"
         style="font-style:normal;font-weight:normal;font-size:7.76111126px;line-height:1.25;font-family:sans-serif;letter-spacing:0px;word-spacing:0px;fill:#000000;fill-opacity:1;stroke:none;stroke-width:0.60605621"
         id="text2098"
         transform="translate(0,-1.5875)">
        <path
           d="m 91.694612,186.89676 q 0,1.35819 -0.519995,2.08774 -0.512233,0.72178 -1.420283,0.72178 -0.90805,0 -1.428044,-0.72178 -0.512234,-0.72955 -0.512234,-2.08774 0,-0.67522 0.131939,-1.19521 0.1397,-0.52 0.395817,-0.87701 0.256117,-0.35701 0.613128,-0.54328 0.357011,-0.18626 0.799394,-0.18626 0.90805,0 1.420283,0.72954 0.519995,0.72179 0.519995,2.07222 z m -1.179689,0 q 0,-0.40358 -0.03881,-0.72955 -0.0388,-0.33372 -0.124177,-0.57432 -0.08537,-0.24059 -0.232834,-0.37253 -0.147461,-0.13194 -0.364772,-0.13194 -0.217311,0 -0.364772,0.13194 -0.1397,0.13194 -0.232833,0.37253 -0.08537,0.2406 -0.124178,0.57432 -0.03881,0.32597 -0.03881,0.72955 0,0.40358 0.03881,0.7373 0.0388,0.33373 0.124178,0.57433 0.09313,0.24059 0.232833,0.37253 0.147461,0.13194 0.364772,0.13194 0.217311,0 0.364772,-0.13194 0.147461,-0.13194 0.232834,-0.37253 0.08537,-0.2406 0.124177,-0.57433 0.03881,-0.33372 0.03881,-0.7373 z"
           style="font-style:normal;font-variant:normal;font-weight:bold;font-stretch:normal;font-family:Ubuntu;-inkscape-font-specification:'Ubuntu Bold';stroke-width:0.60605621"
           id="path2757"
           inkscape:connector-curvature="0" />
      </g>
      <g
         aria-label="*"
         style="font-style:normal;font-weight:normal;font-size:11.25774479px;line-height:1.25;font-family:sans-serif;letter-spacing:0px;word-spacing:0px;fill:#000000;fill-opacity:1;stroke:none;stroke-width:0.70360905"
         id="text2102"
         transform="translate(0,-1.5875)">
        <path
           d="m 73.270826,186.41093 q 0.112578,-0.10132 0.281444,-0.21389 0.168866,-0.12384 0.337732,-0.23642 0.180124,-0.12383 0.360248,-0.21389 0.180124,-0.10132 0.315217,-0.14636 l 0.270186,-0.0901 0.45031,1.39596 -0.270186,0.0901 q -0.146351,0.045 -0.337732,0.0675 -0.191382,0.0225 -0.405279,0.0338 -0.213897,0 -0.416537,0 -0.202639,0 -0.360248,0 0.135093,0.0901 0.292702,0.2139 0.168866,0.11258 0.326474,0.24767 0.168866,0.12384 0.315217,0.25893 0.146351,0.13509 0.236413,0.25893 l 0.180124,0.23641 -1.193321,0.84433 -0.168866,-0.22515 q -0.09006,-0.11258 -0.180124,-0.2927 -0.0788,-0.18013 -0.157609,-0.37151 -0.0788,-0.20264 -0.135093,-0.39402 -0.05629,-0.19138 -0.101319,-0.34899 -0.04503,0.15761 -0.10132,0.34899 -0.05629,0.19138 -0.135093,0.39402 -0.0788,0.19138 -0.168866,0.37151 -0.0788,0.18012 -0.168866,0.2927 l -0.168867,0.22515 -1.193321,-0.84433 0.180124,-0.23641 q 0.09006,-0.12384 0.236413,-0.25893 0.146351,-0.13509 0.303959,-0.25893 0.168866,-0.13509 0.326475,-0.24767 0.168866,-0.12383 0.303959,-0.2139 -0.157609,0 -0.360248,0 -0.202639,0 -0.416537,0 -0.213897,-0.0112 -0.405278,-0.0338 -0.191382,-0.0225 -0.337733,-0.0675 l -0.270186,-0.0901 0.45031,-1.39596 0.270186,0.0901 q 0.135093,0.045 0.315217,0.14636 0.180124,0.0901 0.34899,0.21389 0.180124,0.11258 0.337732,0.23642 0.168867,0.11257 0.292702,0.21389 -0.05629,-0.14635 -0.123835,-0.33773 -0.05629,-0.20264 -0.112578,-0.40528 -0.05629,-0.20264 -0.10132,-0.39402 -0.03377,-0.20264 -0.03377,-0.34899 v -0.28144 h 1.463507 v 0.28144 q 0,0.14635 -0.04503,0.34899 -0.03377,0.19138 -0.09006,0.39402 -0.05629,0.20264 -0.123835,0.40528 -0.05629,0.19138 -0.112578,0.33773 z"
           style="font-style:normal;font-variant:normal;font-weight:bold;font-stretch:normal;font-family:Ubuntu;-inkscape-font-specification:'Ubuntu Bold';stroke-width:0.70360905"
           id="path2754"
           inkscape:connector-curvature="0" />
      </g>
      <g
         aria-label="#"
         style="font-style:normal;font-weight:normal;font-size:6.3975606px;line-height:1.25;font-family:sans-serif;letter-spacing:0px;word-spacing:0px;fill:#000000;fill-opacity:1;stroke:none;stroke-width:0.49957812"
         id="text2106"
         transform="translate(0,-1.5875)">
        <path
           d="m 106.36545,185.77148 h 0.74211 l 0.21112,-1.08759 h 0.83169 l -0.21112,1.08759 h 0.46702 v 0.73572 h -0.60777 l -0.15354,0.7869 h 0.76131 v 0.73572 h -0.90206 l -0.20472,1.08758 h -0.83168 l 0.20472,-1.08758 h -0.74212 l -0.20472,1.08758 h -0.83168 l 0.20472,-1.08758 h -0.46062 v -0.73572 h 0.60137 l 0.15354,-0.7869 h -0.75491 v -0.73572 h 0.89565 l 0.21112,-1.08759 h 0.83169 z m -0.29429,1.52262 h 0.74212 l 0.15354,-0.7869 h -0.74212 z"
           style="font-style:normal;font-variant:normal;font-weight:bold;font-stretch:normal;font-family:Ubuntu;-inkscape-font-specification:'Ubuntu Bold';stroke-width:0.49957812"
           id="path2751"
           inkscape:connector-curvature="0" />
      </g>
      <g
         aria-label="1"
         style="font-style:normal;font-weight:normal;font-size:7.76111126px;line-height:1.25;font-family:sans-serif;letter-spacing:0px;word-spacing:0px;fill:#000000;fill-opacity:1;stroke:none;stroke-width:0.60605621"
         id="text2110"
         transform="translate(0,-1.5875)">
        <path
           d="m 71.053616,153.59703 q 0.225072,-0.0931 0.465666,-0.20955 0.248356,-0.12418 0.481189,-0.26388 0.232834,-0.14746 0.442384,-0.30268 0.217311,-0.16298 0.388055,-0.34149 h 0.807156 v 5.37845 H 72.48166 v -3.87279 q -0.232833,0.15522 -0.519994,0.28716 -0.287161,0.12417 -0.5588,0.21731 z"
           style="font-style:normal;font-variant:normal;font-weight:bold;font-stretch:normal;font-family:Ubuntu;-inkscape-font-specification:'Ubuntu Bold';stroke-width:0.60605621"
           id="path2748"
           inkscape:connector-curvature="0" />
      </g>
      <g
         aria-label="2"
         style="font-style:normal;font-weight:normal;font-size:7.76111126px;line-height:1.25;font-family:sans-serif;letter-spacing:0px;word-spacing:0px;fill:#000000;fill-opacity:1;stroke:none;stroke-width:0.60605621"
         id="text2114"
         transform="translate(0,-1.5875)">
        <path
           d="m 90.910302,153.95404 q 0,0.29492 -0.116416,0.56656 -0.116417,0.27164 -0.302684,0.52776 -0.186266,0.24835 -0.4191,0.48119 -0.232833,0.23283 -0.457905,0.44238 -0.116417,0.10865 -0.256117,0.24835 -0.131939,0.13194 -0.256117,0.27164 -0.124178,0.1397 -0.225072,0.26388 -0.09313,0.11642 -0.116417,0.19403 h 2.312812 v 0.97014 h -3.585634 q -0.01552,-0.0854 -0.01552,-0.21731 0,-0.13194 0,-0.18627 0,-0.37253 0.116417,-0.68298 0.124177,-0.31044 0.318205,-0.57432 0.194028,-0.27164 0.434622,-0.50447 0.248356,-0.23284 0.48895,-0.46567 0.186267,-0.1785 0.34925,-0.33373 0.162984,-0.16298 0.287162,-0.31044 0.124177,-0.15522 0.194027,-0.30268 0.06985,-0.15523 0.06985,-0.31045 0,-0.34149 -0.194027,-0.48119 -0.194028,-0.1397 -0.481189,-0.1397 -0.20955,0 -0.395817,0.0699 -0.178506,0.0621 -0.333728,0.15522 -0.147461,0.0854 -0.256117,0.17851 -0.108655,0.0854 -0.162983,0.1397 l -0.574322,-0.80716 q 0.341489,-0.3182 0.791633,-0.51999 0.457906,-0.20955 0.9779,-0.20955 0.473428,0 0.814917,0.10866 0.341489,0.10865 0.5588,0.31044 0.225072,0.19403 0.325967,0.48119 0.108655,0.2794 0.108655,0.63641 z"
           style="font-style:normal;font-variant:normal;font-weight:bold;font-stretch:normal;font-family:Ubuntu;-inkscape-font-specification:'Ubuntu Bold';stroke-width:0.60605621"
           id="path2745"
           inkscape:connector-curvature="0" />
      </g>
      <g
         aria-label="3"
         style="font-style:normal;font-weight:normal;font-size:7.76111126px;line-height:1.25;font-family:sans-serif;letter-spacing:0px;word-spacing:0px;fill:#000000;fill-opacity:1;stroke:none;stroke-width:0.60605621"
         id="text2118"
         transform="translate(0,-1.5875)">
        <path
           d="m 105.66195,157.97817 q -0.20955,0 -0.44238,-0.031 -0.23284,-0.0233 -0.45015,-0.0698 -0.21731,-0.0466 -0.39581,-0.1009 -0.17851,-0.0543 -0.2794,-0.10089 l 0.22507,-0.96238 q 0.20179,0.0854 0.51223,0.18627 0.31821,0.0931 0.78387,0.0931 0.53552,0 0.78388,-0.20179 0.24835,-0.20179 0.24835,-0.54328 0,-0.20955 -0.0931,-0.34925 -0.0854,-0.14746 -0.2406,-0.23283 -0.15522,-0.0931 -0.37253,-0.12418 -0.20955,-0.0388 -0.45014,-0.0388 h -0.45015 v -0.93134 h 0.51224 q 0.17074,0 0.32596,-0.031 0.16299,-0.031 0.28716,-0.10089 0.12418,-0.0776 0.19403,-0.20179 0.0776,-0.13194 0.0776,-0.32597 0,-0.14746 -0.0621,-0.25612 -0.0621,-0.10865 -0.16298,-0.1785 -0.0931,-0.0699 -0.22507,-0.1009 -0.12418,-0.0388 -0.25612,-0.0388 -0.33373,0 -0.62089,0.10089 -0.2794,0.1009 -0.51223,0.24836 l -0.41134,-0.84596 q 0.12418,-0.0776 0.28716,-0.16299 0.17075,-0.0854 0.37253,-0.15522 0.20179,-0.0699 0.42687,-0.11642 0.23283,-0.0466 0.48895,-0.0466 0.47342,0 0.81491,0.11641 0.34925,0.10866 0.57432,0.31821 0.22508,0.20179 0.33373,0.48119 0.10866,0.27164 0.10866,0.5976 0,0.31821 -0.17851,0.62089 -0.1785,0.29493 -0.48119,0.45015 0.4191,0.17074 0.64418,0.51223 0.23283,0.33373 0.23283,0.80716 0,0.37253 -0.12418,0.69074 -0.12418,0.31044 -0.38805,0.54327 -0.26388,0.22508 -0.67522,0.35701 -0.40358,0.12418 -0.96238,0.12418 z"
           style="font-style:normal;font-variant:normal;font-weight:bold;font-stretch:normal;font-family:Ubuntu;-inkscape-font-specification:'Ubuntu Bold';stroke-width:0.60605621"
           id="path2742"
           inkscape:connector-curvature="0" />
      </g>
      <g
         aria-label="abc"
         style="font-style:normal;font-weight:normal;font-size:3.49596453px;line-height:1.25;font-family:sans-serif;letter-spacing:0px;word-spacing:0px;fill:#000000;fill-opacity:1;stroke:none;stroke-width:0.21849778"
         id="text2122"
         transform="translate(0,-1.5875)">
        <path
           d="m 94.614673,157.50744 q 0.07691,0 0.146831,-0.004 0.06992,-0.003 0.111871,-0.0105 v -0.39504 q -0.03146,-0.007 -0.09439,-0.014 -0.06293,-0.007 -0.115367,-0.007 -0.07342,0 -0.139839,0.0105 -0.06293,0.007 -0.111871,0.0315 -0.04894,0.0245 -0.07691,0.0664 -0.02797,0.0419 -0.02797,0.10488 0,0.12236 0.08041,0.1713 0.0839,0.0455 0.227237,0.0455 z m -0.04195,-1.52424 q 0.230733,0 0.384556,0.0524 0.153822,0.0524 0.244717,0.15032 0.09439,0.0979 0.132847,0.23773 0.03846,0.13984 0.03846,0.31114 v 1.08375 q -0.111871,0.0245 -0.311141,0.0559 -0.19927,0.035 -0.482443,0.035 -0.178295,0 -0.325125,-0.0315 -0.143335,-0.0315 -0.248214,-0.10138 -0.104879,-0.0734 -0.160814,-0.18879 -0.05594,-0.11536 -0.05594,-0.28317 0,-0.16081 0.06293,-0.27268 0.06642,-0.11187 0.174798,-0.1783 0.108375,-0.0664 0.248214,-0.0944 0.139838,-0.0315 0.290165,-0.0315 0.101383,0 0.178294,0.0105 0.08041,0.007 0.129351,0.021 v -0.0489 q 0,-0.13285 -0.08041,-0.21326 -0.08041,-0.0804 -0.279677,-0.0804 -0.132846,0 -0.262197,0.021 -0.129351,0.0175 -0.223742,0.0524 l -0.06642,-0.41951 q 0.04545,-0.014 0.111871,-0.028 0.06992,-0.0175 0.150326,-0.028 0.08041,-0.014 0.167807,-0.021 0.09089,-0.0105 0.18179,-0.0105 z"
           style="font-style:normal;font-variant:normal;font-weight:bold;font-stretch:normal;font-family:Ubuntu;-inkscape-font-specification:'Ubuntu Bold';stroke-width:0.21849778"
           id="path2735"
           inkscape:connector-curvature="0" />
        <path
           d="m 97.023391,156.93759 q 0,-0.50341 -0.370572,-0.50341 -0.08041,0 -0.160815,0.021 -0.07691,0.021 -0.125854,0.0524 v 0.94741 q 0.03845,0.007 0.09789,0.014 0.05943,0.004 0.12935,0.004 0.213254,0 0.321629,-0.14683 0.108375,-0.14683 0.108375,-0.38806 z m 0.531387,0.014 q 0,0.22024 -0.06642,0.39854 -0.06293,0.17829 -0.185286,0.30415 -0.122359,0.12585 -0.300653,0.19577 -0.178294,0.0664 -0.405532,0.0664 -0.09439,0 -0.19927,-0.0105 -0.101383,-0.007 -0.202766,-0.021 -0.09789,-0.014 -0.188782,-0.0315 -0.0909,-0.021 -0.160814,-0.042 v -2.56954 l 0.520899,-0.0839 v 0.91594 q 0.0874,-0.0385 0.18179,-0.0594 0.09439,-0.021 0.202766,-0.021 0.195774,0 0.3461,0.0699 0.150327,0.0664 0.25171,0.19228 0.101383,0.12586 0.153822,0.30415 0.05244,0.1748 0.05244,0.39155 z"
           style="font-style:normal;font-variant:normal;font-weight:bold;font-stretch:normal;font-family:Ubuntu;-inkscape-font-specification:'Ubuntu Bold';stroke-width:0.21849778"
           id="path2737"
           inkscape:connector-curvature="0" />
        <path
           d="m 97.869408,156.95158 q 0,-0.19927 0.06293,-0.37407 0.06642,-0.17829 0.188782,-0.30764 0.122359,-0.13285 0.297157,-0.20976 0.174799,-0.0769 0.39854,-0.0769 0.146831,0 0.26919,0.028 0.122358,0.0245 0.237725,0.0734 l -0.108375,0.41602 q -0.07342,-0.028 -0.160814,-0.0489 -0.0874,-0.021 -0.195774,-0.021 -0.230734,0 -0.346101,0.14333 -0.11187,0.14334 -0.11187,0.37757 0,0.24821 0.104878,0.38455 0.108375,0.13635 0.374069,0.13635 0.09439,0 0.202766,-0.0175 0.108375,-0.0175 0.19927,-0.0559 l 0.07341,0.42651 q -0.0909,0.0385 -0.227238,0.0664 -0.136342,0.028 -0.300653,0.028 -0.251709,0 -0.433499,-0.0734 -0.181791,-0.0769 -0.300653,-0.20627 -0.115367,-0.12935 -0.171303,-0.30415 -0.05244,-0.17829 -0.05244,-0.38455 z"
           style="font-style:normal;font-variant:normal;font-weight:bold;font-stretch:normal;font-family:Ubuntu;-inkscape-font-specification:'Ubuntu Bold';stroke-width:0.21849778"
           id="path2739"
           inkscape:connector-curvature="0" />
      </g>
      <g
         aria-label="def"
         style="font-style:normal;font-weight:normal;font-size:3.49596453px;line-height:1.25;font-family:sans-serif;letter-spacing:0px;word-spacing:0px;fill:#000000;fill-opacity:1;stroke:none;stroke-width:0.21849778"
         id="text2126"
         transform="translate(0,-1.5875)">
        <path
           d="m 111.35095,156.99581 q 0,0.24122 0.10838,0.38805 0.10837,0.14683 0.32163,0.14683 0.0699,0 0.12935,-0.004 0.0594,-0.007 0.0979,-0.014 v -0.94741 q -0.0489,-0.0315 -0.12935,-0.0524 -0.0769,-0.021 -0.15732,-0.021 -0.37057,0 -0.37057,0.50342 z m 1.17814,0.87399 q -0.0699,0.021 -0.16081,0.042 -0.0909,0.0175 -0.19228,0.0315 -0.0979,0.014 -0.20277,0.021 -0.10138,0.0105 -0.19577,0.0105 -0.22724,0 -0.40553,-0.0664 -0.1783,-0.0664 -0.30066,-0.18878 -0.12235,-0.12585 -0.18878,-0.30065 -0.0629,-0.1783 -0.0629,-0.39854 0,-0.22374 0.0559,-0.40204 0.0559,-0.18179 0.16081,-0.30764 0.10488,-0.12586 0.25521,-0.19228 0.15382,-0.0664 0.3496,-0.0664 0.10837,0 0.19227,0.021 0.0874,0.021 0.1748,0.0594 v -0.83204 l 0.5209,-0.0839 z"
           style="font-style:normal;font-variant:normal;font-weight:bold;font-stretch:normal;font-family:Ubuntu;-inkscape-font-specification:'Ubuntu Bold';stroke-width:0.21849778"
           id="path2728"
           inkscape:connector-curvature="0" />
        <path
           d="m 112.93112,157.02377 q 0,-0.24471 0.0734,-0.4265 0.0769,-0.18529 0.19927,-0.30765 0.12236,-0.12236 0.27967,-0.18528 0.16082,-0.0629 0.32862,-0.0629 0.39155,0 0.61879,0.24122 0.22724,0.23773 0.22724,0.70269 0,0.0454 -0.004,0.10138 -0.003,0.0524 -0.007,0.0944 H 113.466 q 0.0175,0.16082 0.15033,0.25521 0.13285,0.0944 0.35659,0.0944 0.14333,0 0.27968,-0.0245 0.13983,-0.028 0.22723,-0.0664 l 0.0699,0.42302 q -0.0419,0.021 -0.11187,0.042 -0.0699,0.021 -0.15732,0.035 -0.0839,0.0175 -0.18179,0.028 -0.0979,0.0105 -0.19577,0.0105 -0.24821,0 -0.4335,-0.0734 -0.18179,-0.0734 -0.30415,-0.19927 -0.11886,-0.12935 -0.17829,-0.30415 -0.0559,-0.1748 -0.0559,-0.37757 z m 1.22359,-0.19927 q -0.003,-0.0664 -0.0245,-0.12935 -0.0175,-0.0629 -0.0594,-0.11187 -0.0385,-0.0489 -0.10139,-0.0804 -0.0594,-0.0315 -0.15032,-0.0315 -0.0874,0 -0.15033,0.0315 -0.0629,0.028 -0.10488,0.0769 -0.0419,0.0489 -0.0664,0.11536 -0.021,0.0629 -0.0315,0.12935 z"
           style="font-style:normal;font-variant:normal;font-weight:bold;font-stretch:normal;font-family:Ubuntu;-inkscape-font-specification:'Ubuntu Bold';stroke-width:0.21849778"
           id="path2730"
           inkscape:connector-curvature="0" />
        <path
           d="m 115.85724,155.21636 q 0.14683,0 0.26919,0.0315 0.12236,0.028 0.18878,0.0559 l -0.10138,0.41602 q -0.0699,-0.0315 -0.15382,-0.0454 -0.0804,-0.0175 -0.15033,-0.0175 -0.0944,0 -0.16081,0.028 -0.0629,0.0245 -0.10139,0.0699 -0.035,0.0454 -0.0524,0.10837 -0.014,0.0629 -0.014,0.13635 v 0.0909 h 0.64326 v 0.4335 h -0.64326 v 1.40538 h -0.5209 v -1.93676 q 0,-0.35659 0.19927,-0.56635 0.20277,-0.20976 0.59781,-0.20976 z"
           style="font-style:normal;font-variant:normal;font-weight:bold;font-stretch:normal;font-family:Ubuntu;-inkscape-font-specification:'Ubuntu Bold';stroke-width:0.21849778"
           id="path2732"
           inkscape:connector-curvature="0" />
      </g>
      <g
         aria-label="pqrs"
         style="font-style:normal;font-weight:normal;font-size:3.49596453px;line-height:1.25;font-family:sans-serif;letter-spacing:0px;word-spacing:0px;fill:#000000;fill-opacity:1;stroke:none;stroke-width:0.21849778"
         id="text2130"
         transform="translate(0,-1.5875)">
        <path
           d="m 77.657049,177.52805 q 0,-0.24122 -0.108374,-0.38456 -0.108375,-0.14683 -0.321629,-0.14683 -0.06992,0 -0.129351,0.007 -0.05943,0.004 -0.09789,0.0105 v 0.94042 q 0.04894,0.0315 0.125855,0.0524 0.08041,0.021 0.160814,0.021 0.370572,0 0.370572,-0.49992 z m 0.531387,-0.014 q 0,0.21326 -0.05244,0.38806 -0.05244,0.17479 -0.153823,0.30065 -0.101383,0.12585 -0.251709,0.19577 -0.150327,0.0699 -0.346101,0.0699 -0.108375,0 -0.202766,-0.021 -0.09439,-0.021 -0.18179,-0.0594 v 0.69221 h -0.520899 v -2.42271 q 0.06992,-0.021 0.160815,-0.0384 0.0909,-0.021 0.188782,-0.035 0.101383,-0.014 0.202766,-0.021 0.104879,-0.0105 0.19927,-0.0105 0.227237,0 0.405532,0.0699 0.178294,0.0664 0.300653,0.19228 0.122358,0.12236 0.185286,0.30065 0.06642,0.1783 0.06642,0.39854 z"
           style="font-style:normal;font-variant:normal;font-weight:bold;font-stretch:normal;font-family:Ubuntu;-inkscape-font-specification:'Ubuntu Bold';stroke-width:0.21849778"
           id="path2719"
           inkscape:connector-curvature="0" />
        <path
           d="m 79.034453,177.52805 q 0,0.49992 0.370572,0.49992 0.08041,0 0.157319,-0.021 0.08041,-0.021 0.129351,-0.0524 v -0.94042 q -0.03846,-0.007 -0.09789,-0.0105 -0.05943,-0.007 -0.129351,-0.007 -0.213254,0 -0.321629,0.14683 -0.108375,0.14334 -0.108375,0.38456 z m -0.531386,-0.014 q 0,-0.21325 0.06293,-0.38805 0.06642,-0.17829 0.188782,-0.30415 0.122359,-0.12935 0.300653,-0.19927 0.178294,-0.0699 0.405532,-0.0699 0.09439,0 0.195774,0.0105 0.104879,0.007 0.202766,0.021 0.101383,0.014 0.192278,0.035 0.0909,0.0175 0.160814,0.0384 v 2.42271 h -0.520898 v -0.69221 q -0.0874,0.0385 -0.181791,0.0594 -0.09439,0.021 -0.202766,0.021 -0.391548,0 -0.59781,-0.2552 -0.206261,-0.2587 -0.206261,-0.6992 z"
           style="font-style:normal;font-variant:normal;font-weight:bold;font-stretch:normal;font-family:Ubuntu;-inkscape-font-specification:'Ubuntu Bold';stroke-width:0.21849778"
           id="path2721"
           inkscape:connector-curvature="0" />
        <path
           d="m 81.810243,177.05609 q -0.06992,-0.0175 -0.164311,-0.035 -0.09439,-0.021 -0.202766,-0.021 -0.04894,0 -0.118862,0.0105 -0.06642,0.007 -0.101383,0.0175 v 1.40538 h -0.520899 v -1.74099 q 0.139839,-0.0489 0.328621,-0.0909 0.192278,-0.0454 0.426507,-0.0454 0.04195,0 0.101383,0.007 0.05943,0.004 0.118863,0.014 0.05943,0.007 0.118863,0.021 0.05943,0.0105 0.101383,0.028 z"
           style="font-style:normal;font-variant:normal;font-weight:bold;font-stretch:normal;font-family:Ubuntu;-inkscape-font-specification:'Ubuntu Bold';stroke-width:0.21849778"
           id="path2723"
           inkscape:connector-curvature="0" />
        <path
           d="m 82.705206,178.05943 q 0.143335,0 0.202766,-0.028 0.05943,-0.028 0.05943,-0.10838 0,-0.0629 -0.07691,-0.10837 -0.07691,-0.0489 -0.234229,-0.10838 -0.122359,-0.0455 -0.223742,-0.0944 -0.09789,-0.0489 -0.167806,-0.11537 -0.06992,-0.0699 -0.108375,-0.16431 -0.03846,-0.0944 -0.03846,-0.22723 0,-0.25871 0.192278,-0.40903 0.192278,-0.15033 0.527891,-0.15033 0.167806,0 0.321629,0.0315 0.153822,0.028 0.244717,0.0629 l -0.0909,0.40553 q -0.09089,-0.0315 -0.19927,-0.0559 -0.104879,-0.0245 -0.237725,-0.0245 -0.244718,0 -0.244718,0.13634 0,0.0315 0.01049,0.0559 0.01049,0.0245 0.04195,0.0489 0.03146,0.021 0.0839,0.0489 0.05593,0.0245 0.139838,0.0559 0.171302,0.0629 0.283173,0.12585 0.111871,0.0594 0.174799,0.13285 0.06642,0.0699 0.0909,0.15732 0.02797,0.0874 0.02797,0.20276 0,0.27269 -0.206262,0.41253 -0.202765,0.13984 -0.576834,0.13984 -0.244717,0 -0.409028,-0.042 -0.160814,-0.042 -0.223741,-0.0699 l 0.0874,-0.42301 q 0.132846,0.0524 0.272685,0.0839 0.139839,0.028 0.276181,0.028 z"
           style="font-style:normal;font-variant:normal;font-weight:bold;font-stretch:normal;font-family:Ubuntu;-inkscape-font-specification:'Ubuntu Bold';stroke-width:0.21849778"
           id="path2725"
           inkscape:connector-curvature="0" />
      </g>
      <rect
         y="131.17027"
         x="85.546806"
         height="59.433388"
         width="16.805805"
         id="rect2132"
         style="fill:none;fill-opacity:1;stroke:#000000;stroke-width:0.18973882;stroke-linejoin:round;stroke-miterlimit:4;stroke-dasharray:none;stroke-dashoffset:0;stroke-opacity:1" />
      <g
         aria-label="ghi"
         style="font-style:normal;font-weight:normal;font-size:3.49596453px;line-height:1.25;font-family:sans-serif;letter-spacing:0px;word-spacing:0px;fill:#000000;fill-opacity:1;stroke:none;stroke-width:0.21849778"
         id="text2136"
         transform="translate(0,-1.5875)">
        <path
           d="m 78.11676,166.86982 q 0,0.437 0.353092,0.437 0.08041,0 0.150327,-0.021 0.06992,-0.021 0.118863,-0.0489 v -0.83204 q -0.03846,-0.007 -0.0909,-0.0105 -0.05244,-0.007 -0.122358,-0.007 -0.206262,0 -0.307645,0.13634 -0.101383,0.13635 -0.101383,0.3461 z m 1.14318,0.74814 q 0,0.45098 -0.230733,0.66773 -0.227238,0.22025 -0.706185,0.22025 -0.167807,0 -0.335613,-0.0315 -0.167806,-0.028 -0.311141,-0.0769 l 0.0909,-0.437 q 0.122359,0.049 0.255206,0.0769 0.136342,0.028 0.307645,0.028 0.223741,0 0.314636,-0.0979 0.09439,-0.0979 0.09439,-0.25171 v -0.0664 q -0.0839,0.0385 -0.174799,0.0594 -0.0874,0.0175 -0.192278,0.0175 -0.38106,0 -0.583826,-0.22375 -0.202766,-0.22723 -0.202766,-0.63277 0,-0.20276 0.06293,-0.36707 0.06293,-0.16781 0.18179,-0.28667 0.122358,-0.11886 0.297157,-0.18179 0.174798,-0.0664 0.395044,-0.0664 0.09439,0 0.192278,0.0105 0.101383,0.007 0.19927,0.021 0.09789,0.014 0.185286,0.035 0.0909,0.0175 0.160814,0.0385 z"
           style="font-style:normal;font-variant:normal;font-weight:bold;font-stretch:normal;font-family:Ubuntu;-inkscape-font-specification:'Ubuntu Bold';stroke-width:0.21849778"
           id="path2712"
           inkscape:connector-curvature="0" />
        <path
           d="m 79.749375,167.84869 v -2.62896 l 0.520898,-0.0839 v 0.88098 q 0.05244,-0.0175 0.132847,-0.0315 0.0839,-0.0175 0.160815,-0.0175 0.223741,0 0.370572,0.0629 0.150326,0.0594 0.237725,0.1713 0.0909,0.11188 0.125855,0.2657 0.03846,0.15382 0.03846,0.3426 v 1.0383 h -0.520899 v -0.97537 q 0,-0.25171 -0.06642,-0.35659 -0.06293,-0.10488 -0.237726,-0.10488 -0.06992,0 -0.132847,0.014 -0.05943,0.0105 -0.108375,0.0245 v 1.39838 z"
           style="font-style:normal;font-variant:normal;font-weight:bold;font-stretch:normal;font-family:Ubuntu;-inkscape-font-specification:'Ubuntu Bold';stroke-width:0.21849778"
           id="path2714"
           inkscape:connector-curvature="0" />
        <path
           d="m 82.329392,167.84869 h -0.520898 v -1.83887 h 0.520898 z m 0.04894,-2.37026 q 0,0.14333 -0.09439,0.22724 -0.0909,0.0804 -0.21675,0.0804 -0.125855,0 -0.220246,-0.0804 -0.09089,-0.0839 -0.09089,-0.22724 0,-0.14333 0.09089,-0.22374 0.09439,-0.0839 0.220246,-0.0839 0.125855,0 0.21675,0.0839 0.09439,0.0804 0.09439,0.22374 z"
           style="font-style:normal;font-variant:normal;font-weight:bold;font-stretch:normal;font-family:Ubuntu;-inkscape-font-specification:'Ubuntu Bold';stroke-width:0.21849778"
           id="path2716"
           inkscape:connector-curvature="0" />
      </g>
      <g
         aria-label="jkl"
         style="font-style:normal;font-weight:normal;font-size:3.49596453px;line-height:1.25;font-family:sans-serif;letter-spacing:0px;word-spacing:0px;fill:#000000;fill-opacity:1;stroke:none;stroke-width:0.21849778"
         id="text2140"
         transform="translate(0,-1.5875)">
        <path
           d="m 94.728292,168.50593 q -0.04894,0 -0.143335,-0.0105 -0.09789,-0.0105 -0.18179,-0.0385 l 0.06992,-0.42302 q 0.05244,0.0175 0.09789,0.0245 0.04195,0.007 0.108374,0.007 0.122359,0 0.171303,-0.0734 0.04894,-0.0734 0.04894,-0.21325 v -1.75847 h 0.520899 v 1.77245 q 0,0.36358 -0.178294,0.53838 -0.178294,0.1748 -0.513907,0.1748 z m 0.741144,-3.01702 q 0,0.14334 -0.09439,0.22724 -0.0909,0.0804 -0.216749,0.0804 -0.125855,0 -0.220246,-0.0804 -0.0909,-0.0839 -0.0909,-0.22724 0,-0.14333 0.0909,-0.22374 0.09439,-0.0839 0.220246,-0.0839 0.125854,0 0.216749,0.0839 0.09439,0.0804 0.09439,0.22374 z"
           style="font-style:normal;font-variant:normal;font-weight:bold;font-stretch:normal;font-family:Ubuntu;-inkscape-font-specification:'Ubuntu Bold';stroke-width:0.21849778"
           id="path2705"
           inkscape:connector-curvature="0" />
        <path
           d="m 96.430825,166.68453 q 0.07691,-0.0839 0.157319,-0.1748 0.0839,-0.0909 0.160814,-0.17829 0.07691,-0.0909 0.143334,-0.1713 0.06992,-0.0804 0.118863,-0.13984 h 0.618786 q -0.185286,0.21325 -0.36358,0.40903 -0.174799,0.19228 -0.384556,0.39854 0.104879,0.0944 0.216749,0.22723 0.111871,0.12936 0.21675,0.26919 0.104879,0.13984 0.192278,0.27968 0.0874,0.13984 0.146831,0.25521 h -0.59781 q -0.05594,-0.0909 -0.129351,-0.19927 -0.06992,-0.11187 -0.150326,-0.22025 -0.08041,-0.11187 -0.171303,-0.21325 -0.0874,-0.10139 -0.174798,-0.17131 v 0.80408 h -0.520899 v -2.62897 l 0.520899,-0.0839 z"
           style="font-style:normal;font-variant:normal;font-weight:bold;font-stretch:normal;font-family:Ubuntu;-inkscape-font-specification:'Ubuntu Bold';stroke-width:0.21849778"
           id="path2707"
           inkscape:connector-curvature="0" />
        <path
           d="m 98.668237,167.89414 q -0.227237,-0.004 -0.370572,-0.0489 -0.139838,-0.0454 -0.223742,-0.12585 -0.08041,-0.0839 -0.11187,-0.19927 -0.02797,-0.11886 -0.02797,-0.2657 v -2.02416 l 0.520899,-0.0839 v 2.00319 q 0,0.0699 0.01049,0.12585 0.01049,0.0559 0.03846,0.0944 0.03146,0.0385 0.0874,0.0629 0.05594,0.0245 0.150327,0.0315 z"
           style="font-style:normal;font-variant:normal;font-weight:bold;font-stretch:normal;font-family:Ubuntu;-inkscape-font-specification:'Ubuntu Bold';stroke-width:0.21849778"
           id="path2709"
           inkscape:connector-curvature="0" />
      </g>
      <g
         aria-label="mno"
         style="font-style:normal;font-weight:normal;font-size:3.49596453px;line-height:1.25;font-family:sans-serif;letter-spacing:0px;word-spacing:0px;fill:#000000;fill-opacity:1;stroke:none;stroke-width:0.21849778"
         id="text2144"
         transform="translate(0,-1.5875)">
        <path
           d="m 111.1814,167.48161 q 0,-0.25171 -0.0664,-0.35659 -0.0629,-0.10488 -0.22024,-0.10488 -0.049,0 -0.10139,0.007 -0.0524,0.003 -0.10138,0.0105 v 1.41937 h -0.5209 v -1.77595 q 0.0664,-0.0175 0.15382,-0.035 0.0909,-0.021 0.18879,-0.035 0.10138,-0.0175 0.20626,-0.0245 0.10488,-0.0105 0.20626,-0.0105 0.19927,0 0.32163,0.0524 0.12585,0.0489 0.20626,0.11886 0.11187,-0.0804 0.25521,-0.12586 0.14683,-0.0454 0.26918,-0.0454 0.22025,0 0.36009,0.0629 0.14333,0.0594 0.22724,0.17131 0.0839,0.11187 0.11536,0.26569 0.0315,0.15382 0.0315,0.3426 v 1.03831 h -0.5209 v -0.97538 q 0,-0.25171 -0.0664,-0.35659 -0.0629,-0.10488 -0.22025,-0.10488 -0.0419,0 -0.11886,0.021 -0.0734,0.021 -0.12236,0.0524 0.0245,0.0804 0.0315,0.1713 0.007,0.0874 0.007,0.18878 v 1.00335 h -0.5209 z"
           style="font-style:normal;font-variant:normal;font-weight:bold;font-stretch:normal;font-family:Ubuntu;-inkscape-font-specification:'Ubuntu Bold';stroke-width:0.21849778"
           id="path2698"
           inkscape:connector-curvature="0" />
        <path
           d="m 113.18459,166.68104 q 0.13285,-0.0385 0.34261,-0.0699 0.20975,-0.035 0.44049,-0.035 0.23423,0 0.38805,0.0629 0.15732,0.0594 0.24821,0.17131 0.0909,0.11187 0.12935,0.26569 0.0385,0.15382 0.0385,0.3426 v 1.03831 h -0.5209 v -0.97538 q 0,-0.25171 -0.0664,-0.35659 -0.0664,-0.10488 -0.24822,-0.10488 -0.0559,0 -0.11886,0.007 -0.0629,0.003 -0.11187,0.0105 v 1.41937 h -0.5209 z"
           style="font-style:normal;font-variant:normal;font-weight:bold;font-stretch:normal;font-family:Ubuntu;-inkscape-font-specification:'Ubuntu Bold';stroke-width:0.21849778"
           id="path2700"
           inkscape:connector-curvature="0" />
        <path
           d="m 116.96372,167.53405 q 0,0.21675 -0.0629,0.39854 -0.0629,0.17829 -0.18179,0.30765 -0.11887,0.12585 -0.28667,0.19577 -0.16431,0.0699 -0.37057,0.0699 -0.20277,0 -0.37058,-0.0699 -0.16431,-0.0699 -0.28317,-0.19577 -0.11886,-0.12936 -0.18529,-0.30765 -0.0664,-0.18179 -0.0664,-0.39854 0,-0.21675 0.0664,-0.39504 0.0699,-0.1783 0.18879,-0.30415 0.12235,-0.12586 0.28666,-0.19578 0.16781,-0.0699 0.36359,-0.0699 0.19927,0 0.36358,0.0699 0.1678,0.0699 0.28666,0.19578 0.11887,0.12585 0.18529,0.30415 0.0664,0.17829 0.0664,0.39504 z m -0.53138,0 q 0,-0.24122 -0.0979,-0.37756 -0.0944,-0.13984 -0.27268,-0.13984 -0.1783,0 -0.27619,0.13984 -0.0979,0.13634 -0.0979,0.37756 0,0.24122 0.0979,0.38456 0.0979,0.13984 0.27619,0.13984 0.17829,0 0.27268,-0.13984 0.0979,-0.14334 0.0979,-0.38456 z"
           style="font-style:normal;font-variant:normal;font-weight:bold;font-stretch:normal;font-family:Ubuntu;-inkscape-font-specification:'Ubuntu Bold';stroke-width:0.21849778"
           id="path2702"
           inkscape:connector-curvature="0" />
      </g>
      <g
         aria-label="wxyz"
         style="font-style:normal;font-weight:normal;font-size:3.49596453px;line-height:1.25;font-family:sans-serif;letter-spacing:0px;word-spacing:0px;fill:#000000;fill-opacity:1;stroke:none;stroke-width:0.21849778"
         id="text2148"
         transform="translate(0,-1.5875)">
        <path
           d="m 110.69723,177.37772 q -0.0699,0.26569 -0.15033,0.52789 -0.0769,0.2622 -0.16431,0.52789 h -0.40553 q -0.0629,-0.14683 -0.13634,-0.34959 -0.0734,-0.20277 -0.15383,-0.4405 -0.0769,-0.24122 -0.16081,-0.50691 -0.0804,-0.26919 -0.15732,-0.54188 h 0.54887 q 0.028,0.12586 0.0594,0.27619 0.035,0.14683 0.0699,0.30414 0.0384,0.15732 0.0769,0.31814 0.0419,0.15732 0.0839,0.30415 0.0455,-0.15383 0.0874,-0.31464 0.0454,-0.16081 0.0839,-0.31464 0.042,-0.15732 0.0769,-0.30065 0.0384,-0.14683 0.0664,-0.27269 h 0.37756 q 0.028,0.12586 0.0629,0.27269 0.035,0.14333 0.0734,0.30065 0.0384,0.15383 0.0804,0.31464 0.042,0.16081 0.0874,0.31464 0.0419,-0.14683 0.0839,-0.30415 0.0419,-0.16082 0.0769,-0.31814 0.0384,-0.15731 0.0699,-0.30414 0.035,-0.15033 0.0629,-0.27619 h 0.54188 q -0.0769,0.27269 -0.16082,0.54188 -0.0804,0.26569 -0.16081,0.50691 -0.0769,0.23773 -0.15382,0.4405 -0.0734,0.20276 -0.13635,0.34959 h -0.40553 q -0.0874,-0.26569 -0.1713,-0.52789 -0.0839,-0.2622 -0.15382,-0.52789 z"
           style="font-style:normal;font-variant:normal;font-weight:bold;font-stretch:normal;font-family:Ubuntu;-inkscape-font-specification:'Ubuntu Bold';stroke-width:0.21849778"
           id="path2689"
           inkscape:connector-curvature="0" />
        <path
           d="m 113.11992,177.15398 0.36358,-0.55936 h 0.53838 l -0.62927,0.88448 q 0.20975,0.2622 0.38106,0.51041 0.1713,0.24822 0.27268,0.44399 H 113.487 q -0.028,-0.0524 -0.0699,-0.12935 -0.0419,-0.0804 -0.0944,-0.16431 -0.0524,-0.0874 -0.11187,-0.1713 -0.0559,-0.0874 -0.11188,-0.15732 -0.0524,0.0664 -0.10837,0.14683 -0.0524,0.0804 -0.10138,0.16431 -0.049,0.0804 -0.0979,0.16082 -0.0455,0.0804 -0.0804,0.15032 h -0.53138 q 0.0419,-0.0874 0.11536,-0.20626 0.0734,-0.11886 0.15732,-0.24472 0.0874,-0.12935 0.18179,-0.2552 0.0944,-0.12935 0.18529,-0.24122 -0.15732,-0.22025 -0.31464,-0.44399 -0.15732,-0.22724 -0.31114,-0.44749 h 0.56285 z"
           style="font-style:normal;font-variant:normal;font-weight:bold;font-stretch:normal;font-family:Ubuntu;-inkscape-font-specification:'Ubuntu Bold';stroke-width:0.21849778"
           id="path2691"
           inkscape:connector-curvature="0" />
        <path
           d="m 116.04254,176.59462 q -0.15732,0.53139 -0.32862,0.99635 -0.17131,0.46497 -0.37407,0.90196 -0.0734,0.15732 -0.14683,0.2657 -0.0734,0.11187 -0.16082,0.18179 -0.0874,0.0734 -0.19927,0.10488 -0.10837,0.035 -0.2552,0.035 -0.12236,0 -0.22724,-0.0245 -0.10138,-0.021 -0.16781,-0.0489 l 0.0909,-0.41602 q 0.0804,0.028 0.14333,0.0385 0.0629,0.0105 0.13285,0.0105 0.13984,0 0.21325,-0.0769 0.0769,-0.0734 0.12935,-0.20626 -0.17829,-0.3496 -0.35658,-0.7831 -0.1783,-0.43699 -0.33562,-0.97887 h 0.55237 q 0.035,0.13635 0.0804,0.29716 0.0489,0.15732 0.10139,0.32163 0.0524,0.16081 0.10488,0.31464 0.0559,0.15382 0.10487,0.27967 0.0455,-0.12585 0.0944,-0.27967 0.0489,-0.15383 0.0944,-0.31464 0.0489,-0.16431 0.0909,-0.32163 0.0455,-0.16081 0.0804,-0.29716 z"
           style="font-style:normal;font-variant:normal;font-weight:bold;font-stretch:normal;font-family:Ubuntu;-inkscape-font-specification:'Ubuntu Bold';stroke-width:0.21849778"
           id="path2693"
           inkscape:connector-curvature="0" />
        <path
           d="m 117.74856,176.94422 q -0.0629,0.0699 -0.1713,0.18878 -0.10488,0.11887 -0.22724,0.2622 -0.12236,0.14334 -0.24821,0.30065 -0.12236,0.15732 -0.22375,0.30415 h 0.88798 v 0.4335 h -1.52075 v -0.30764 q 0.0734,-0.12586 0.1748,-0.26919 0.10488,-0.14683 0.21675,-0.29366 0.11537,-0.14683 0.22724,-0.28318 0.11187,-0.13983 0.20626,-0.25171 h -0.78309 v -0.4335 h 1.46131 z"
           style="font-style:normal;font-variant:normal;font-weight:bold;font-stretch:normal;font-family:Ubuntu;-inkscape-font-specification:'Ubuntu Bold';stroke-width:0.21849778"
           id="path2695"
           inkscape:connector-curvature="0" />
      </g>
      <g
         aria-label="tuv"
         style="font-style:normal;font-weight:normal;font-size:3.49596453px;line-height:1.25;font-family:sans-serif;letter-spacing:0px;word-spacing:0px;fill:#000000;fill-opacity:1;stroke:none;stroke-width:0.21849778"
         id="text2152"
         transform="translate(0,-1.5875)">
        <path
           d="m 93.964428,176.74145 0.520899,-0.0839 v 0.54187 h 0.625777 v 0.4335 h -0.625777 v 0.64676 q 0,0.16431 0.05594,0.26219 0.05943,0.0979 0.23423,0.0979 0.0839,0 0.171302,-0.014 0.0909,-0.0175 0.16431,-0.0454 l 0.07342,0.40553 q -0.09439,0.0385 -0.209758,0.0664 -0.115367,0.028 -0.283173,0.028 -0.213254,0 -0.353093,-0.0559 -0.139838,-0.0594 -0.223742,-0.16082 -0.0839,-0.10488 -0.118862,-0.25171 -0.03146,-0.14683 -0.03146,-0.32512 z"
           style="font-style:normal;font-variant:normal;font-weight:bold;font-stretch:normal;font-family:Ubuntu;-inkscape-font-specification:'Ubuntu Bold';stroke-width:0.21849778"
           id="path2682"
           inkscape:connector-curvature="0" />
        <path
           d="m 97.103798,178.97537 q -0.132846,0.0385 -0.342604,0.0699 -0.209758,0.035 -0.440492,0.035 -0.234229,0 -0.391548,-0.0629 -0.153822,-0.0629 -0.244717,-0.17479 -0.0909,-0.11537 -0.129351,-0.27269 -0.03846,-0.15732 -0.03846,-0.3461 v -1.02432 h 0.520899 v 0.96139 q 0,0.25171 0.06642,0.36358 0.06642,0.11187 0.248214,0.11187 0.05594,0 0.118863,-0.003 0.06293,-0.007 0.111871,-0.014 v -1.41936 h 0.520898 z"
           style="font-style:normal;font-variant:normal;font-weight:bold;font-stretch:normal;font-family:Ubuntu;-inkscape-font-specification:'Ubuntu Bold';stroke-width:0.21849778"
           id="path2684"
           inkscape:connector-curvature="0" />
        <path
           d="m 98.037214,179.0383 q -0.178294,-0.3496 -0.36358,-0.81806 -0.181791,-0.46846 -0.346101,-1.02082 h 0.552362 q 0.03496,0.13634 0.08041,0.29716 0.04894,0.15732 0.09789,0.32163 0.05244,0.16081 0.101383,0.31463 0.05244,0.15383 0.101383,0.27968 0.04545,-0.12585 0.09789,-0.27968 0.05244,-0.15382 0.101383,-0.31463 0.05244,-0.16431 0.09789,-0.32163 0.04894,-0.16082 0.0839,-0.29716 h 0.538378 q -0.16431,0.55236 -0.349596,1.02082 -0.18179,0.46846 -0.360085,0.81806 z"
           style="font-style:normal;font-variant:normal;font-weight:bold;font-stretch:normal;font-family:Ubuntu;-inkscape-font-specification:'Ubuntu Bold';stroke-width:0.21849778"
           id="path2686"
           inkscape:connector-curvature="0" />
      </g>
      <rect
         style="fill:none;fill-opacity:1;stroke:#000000;stroke-width:0.18973882;stroke-linejoin:round;stroke-miterlimit:4;stroke-dasharray:none;stroke-dashoffset:0;stroke-opacity:1"
         id="rect2154"
         width="16.805805"
         height="59.433388"
         x="102.35262"
         y="131.17027" />
      <rect
         y="131.17027"
         x="68.741005"
         height="59.433388"
         width="16.805805"
         id="rect2156"
         style="fill:none;fill-opacity:1;stroke:#000000;stroke-width:0.18973882;stroke-linejoin:round;stroke-miterlimit:4;stroke-dasharray:none;stroke-dashoffset:0;stroke-opacity:1" />
      <path
         style="fill:none;fill-opacity:1;stroke:#000000;stroke-width:0.1386911;stroke-linejoin:round;stroke-miterlimit:4;stroke-dasharray:none;stroke-dashoffset:0;stroke-opacity:1"
         d="M 68.744347,180.02597 H 119.21303 V 190.6003 H 68.744347 Z"
         id="rect2158"
         inkscape:connector-curvature="0" />
      <path
         style="fill:none;fill-opacity:1;stroke:#000000;stroke-width:0.1386911;stroke-linejoin:round;stroke-miterlimit:4;stroke-dasharray:none;stroke-dashoffset:0;stroke-opacity:1"
         d="m 68.744347,169.44263 h 50.468683 v 10.57432 H 68.744347 Z"
         id="rect2160"
         inkscape:connector-curvature="0" />
      <path
         style="fill:none;fill-opacity:1;stroke:#000000;stroke-width:0.1386911;stroke-linejoin:round;stroke-miterlimit:4;stroke-dasharray:none;stroke-dashoffset:0;stroke-opacity:1"
         d="m 68.744347,158.8683 h 50.468683 v 10.57433 H 68.744347 Z"
         id="rect2162"
         inkscape:connector-curvature="0" />
      <path
         style="fill:none;fill-opacity:1;stroke:#000000;stroke-width:0.1386911;stroke-linejoin:round;stroke-miterlimit:4;stroke-dasharray:none;stroke-dashoffset:0;stroke-opacity:1"
         d="M 68.744347,148.29397 H 119.21303 V 158.8683 H 68.744347 Z"
         id="rect2164"
         inkscape:connector-curvature="0" />
      <rect
         y="131.16936"
         x="85.545898"
         height="8.2896681"
         width="16.807627"
         id="rect2166"
         style="fill:none;fill-opacity:1;stroke:#000000;stroke-width:0.07086521;stroke-linejoin:round;stroke-miterlimit:4;stroke-dasharray:none;stroke-dashoffset:0;stroke-opacity:1" />
      <path
         style="color:#000000;font-style:normal;font-variant:normal;font-weight:normal;font-stretch:normal;font-size:medium;line-height:normal;font-family:sans-serif;font-variant-ligatures:normal;font-variant-position:normal;font-variant-caps:normal;font-variant-numeric:normal;font-variant-alternates:normal;font-feature-settings:normal;text-indent:0;text-align:start;text-decoration:none;text-decoration-line:none;text-decoration-style:solid;text-decoration-color:#000000;letter-spacing:normal;word-spacing:normal;text-transform:none;writing-mode:lr-tb;direction:ltr;text-orientation:mixed;dominant-baseline:auto;baseline-shift:baseline;text-anchor:start;white-space:normal;shape-padding:0;clip-rule:nonzero;display:inline;overflow:visible;visibility:visible;opacity:1;isolation:auto;mix-blend-mode:normal;color-interpolation:sRGB;color-interpolation-filters:linearRGB;solid-color:#000000;solid-opacity:1;vector-effect:none;fill:#000000;fill-opacity:1;fill-rule:nonzero;stroke:none;stroke-width:0.54699999;stroke-linecap:round;stroke-linejoin:round;stroke-miterlimit:4;stroke-dasharray:none;stroke-dashoffset:0;stroke-opacity:1;paint-order:normal;color-rendering:auto;image-rendering:auto;shape-rendering:auto;text-rendering:auto;enable-background:accumulate"
         d="m 98.041886,186.61678 v 0.36638 h -2.942973 v -0.36638 c -0.631498,-0.0568 -0.547253,0.0592 -0.547253,0.63975 8.7e-5,0.15114 0.122742,0.27357 0.273885,0.27337 h 3.490226 c 0.150942,-9e-5 0.273281,-0.12243 0.273368,-0.27337 0.02518,-0.63905 0.02231,-0.63975 -0.547253,-0.63975 z"
         id="path2168"
         inkscape:connector-curvature="0"
         sodipodi:nodetypes="ccccccccc" />
      <g
         id="g2204"
         transform="matrix(0.01030703,0,0,0.01030703,74.606026,141.49905)">
        <g
           id="g2172">
          <path
             id="path2170"
             d="m 13.448,208.9 c -8.7,-23.5 -15,-47.5 -13.1,-73 1.2,-15.7 7.1,-29.1 18.6,-40.1 12.5,-11.8 24.3,-24.2 36.6,-36.2 16,-15.8 36.1,-15.7 52.1,0 9.9,9.7 19.7,19.6 29.5,29.5 9.5,9.5 19.1,19 28.6,28.6 16.7,16.9 16.8,36.6 0.1,53.4 -12,12 -23.9,24.1 -36.1,35.9 -3.2,3.1 -3.5,5.7 -1.8,9.6 8,19.2 19.6,36.3 32.6,52.3 26.2,32.2 55.8,60.8 91.1,82.9 7.6,4.7 15.9,8.2 23.8,12.5 4.1,2.2 6.8,1.5 10.1,-1.9 11.9,-12.3 24.1,-24.4 36.3,-36.5 16,-15.8 36,-15.9 52,0 19.6,19.4 39.1,38.9 58.5,58.5 16.3,16.4 16.2,36.5 -0.2,53 -11.1,11.2 -22.8,21.8 -33.2,33.5 -15.2,17 -34.4,22.6 -56.2,21.4 -31.8,-1.7 -61.1,-12.3 -89.4,-26 -62.8,-30.5 -116.4,-72.8 -161.3,-126.2 -33.2,-39.6 -60.6,-82.6 -78.6,-131.2 z m 479,35.8 C 492.448,109.8 382.648,0 247.748,0 v 46.6 c 109.2,0 198.1,88.9 198.1,198.1 z m -134,0 h 46.6 c 0,-86.7 -70.6,-157.3 -157.3,-157.3 V 134 c 29.6,0 57.4,11.5 78.3,32.4 20.9,20.9 32.4,48.7 32.4,78.3 z"
             inkscape:connector-curvature="0" />
        </g>
        <g
           id="g2174" />
        <g
           id="g2176" />
        <g
           id="g2178" />
        <g
           id="g2180" />
        <g
           id="g2182" />
        <g
           id="g2184" />
        <g
           id="g2186" />
        <g
           id="g2188" />
        <g
           id="g2190" />
        <g
           id="g2192" />
        <g
           id="g2194" />
        <g
           id="g2196" />
        <g
           id="g2198" />
        <g
           id="g2200" />
        <g
           id="g2202" />
      </g>
      <path
         inkscape:connector-curvature="0"
         d="m 112.72336,143.3509 c 0.23468,0.10787 0.45551,0.23687 0.62751,0.43656 0.10568,0.12317 0.16034,0.26384 0.1567,0.42782 -0.005,0.1771 -7.3e-4,0.35348 -0.003,0.53058 -0.002,0.23176 -0.14868,0.37753 -0.37971,0.37971 -0.14287,10e-4 -0.28643,7.3e-4 -0.43001,0 -0.13847,1e-5 -0.27768,7.3e-4 -0.41688,0 -0.24488,-0.001 -0.38918,-0.1443 -0.38989,-0.38848 -1e-5,-0.17492 -0.002,-0.34983 0.001,-0.52475 7.6e-4,-0.0459 -0.016,-0.067 -0.0568,-0.0831 -0.19825,-0.0816 -0.40742,-0.12172 -0.61877,-0.14358 -0.42563,-0.0437 -0.8498,-0.0364 -1.26814,0.0598 -0.0897,0.0211 -0.17563,0.0561 -0.26456,0.0823 -0.0459,0.0138 -0.0605,0.0386 -0.0597,0.0875 0.003,0.17638 0.002,0.35348 0.002,0.53058 -0.002,0.23177 -0.14649,0.37826 -0.37899,0.37899 -0.28424,0.001 -0.56847,0.001 -0.85271,0 -0.23833,-7.3e-4 -0.38409,-0.14795 -0.38479,-0.38776 -7.3e-4,-0.16252 0.007,-0.32505 -0.002,-0.48612 -0.0131,-0.23468 0.086,-0.41543 0.25363,-0.56556 0.24414,-0.21939 0.53496,-0.35566 0.84105,-0.46208 0.67999,-0.2354 1.37892,-0.31776 2.09536,-0.25581 0.53057,0.0466 1.04366,0.16034 1.52905,0.38336 z"
         id="path2206"
         style="stroke-width:0.01030703"
         sodipodi:nodetypes="cccccccccccccccccccccccc" />
      <rect
         style="fill:#000000;fill-opacity:1;stroke:#000000;stroke-width:0;stroke-linecap:round;stroke-linejoin:round;stroke-miterlimit:4;stroke-dasharray:none;stroke-dashoffset:0;stroke-opacity:1;paint-order:normal"
         id="rect2208"
         width="7.550364"
         height="1.2695302"
         x="73.368721"
         y="133.51738"
         ry="0.80000001" />
      <rect
         ry="0.80000001"
         y="133.51738"
         x="106.98033"
         height="1.2695302"
         width="7.550364"
         id="rect2210"
         style="fill:#000000;fill-opacity:1;stroke:#000000;stroke-width:0;stroke-linecap:round;stroke-linejoin:round;stroke-miterlimit:4;stroke-dasharray:none;stroke-dashoffset:0;stroke-opacity:1;paint-order:normal" />
      <g
         aria-label="+"
         style="font-style:normal;font-weight:normal;font-size:3.49596453px;line-height:1.25;font-family:sans-serif;letter-spacing:0px;word-spacing:0px;fill:#000000;fill-opacity:1;stroke:none;stroke-width:0.21849778"
         id="text2214"
         transform="translate(0,-1.5875)">
        <path
           d="m 79.160301,188.03366 h 0.583826 v -0.64676 h 0.475451 v 0.64676 h 0.583826 v 0.43699 h -0.583826 v 0.64676 h -0.475451 v -0.64676 h -0.583826 z"
           style="font-style:normal;font-variant:normal;font-weight:bold;font-stretch:normal;font-family:Ubuntu;-inkscape-font-specification:'Ubuntu Bold';stroke-width:0.21849778"
           id="path2675"
           inkscape:connector-curvature="0" />
      </g>
      <path
         id="path2216"
         d="m 79.981854,152.54481 c -1.074584,0 -1.944338,0.86961 -1.944338,1.94434 0,0.34103 0.08895,0.67412 0.257847,0.96789 l -0.250519,0.77797 c -0.01748,0.0542 -0.0031,0.11368 0.03718,0.15397 0.0399,0.0399 0.09921,0.0548 0.153979,0.0372 l 0.77796,-0.25052 c 0.293775,0.1689 0.62686,0.25784 0.967897,0.25784 1.074584,0 1.944338,-0.8696 1.944338,-1.94433 0,-1.07459 -0.869606,-1.94434 -1.944338,-1.94434 z m 0,3.58487 c -0.308045,0 -0.608318,-0.0859 -0.86836,-0.24856 -0.03741,-0.0234 -0.08387,-0.0297 -0.127098,-0.0158 l -0.561591,0.18086 0.180858,-0.56159 c 0.0137,-0.0426 0.0079,-0.0891 -0.01581,-0.1271 -0.162582,-0.26004 -0.248531,-0.56031 -0.248531,-0.86836 0,-0.90458 0.73595,-1.64054 1.640535,-1.64054 0.904585,0 1.640536,0.73596 1.640536,1.64054 0,0.90459 -0.735951,1.64054 -1.640536,1.64054 z m 0.189877,-1.64053 c 0,0.10485 -0.085,0.18987 -0.189877,0.18987 -0.104878,0 -0.189877,-0.085 -0.189877,-0.18987 0,-0.10489 0.085,-0.18988 0.189877,-0.18988 0.104877,0 0.189877,0.085 0.189877,0.18988 z m 0.759506,0 c 0,0.10485 -0.085,0.18987 -0.189876,0.18987 -0.104878,0 -0.189877,-0.085 -0.189877,-0.18987 0,-0.10489 0.085,-0.18988 0.189877,-0.18988 0.104877,0 0.189876,0.085 0.189876,0.18988 z m -1.519013,0 c 0,0.10485 -0.085,0.18987 -0.189877,0.18987 -0.104848,0 -0.189876,-0.085 -0.189876,-0.18987 0,-0.10489 0.08503,-0.18988 0.189876,-0.18988 0.104878,0 0.189877,0.085 0.189877,0.18988 z m 0,0"
         inkscape:connector-curvature="0"
         style="stroke-width:0.00759507" />
      <path
         id="path2218"
         d="m 114.41027,187.5299 h -1.68576 c -0.0666,0 -0.12041,-0.0539 -0.12041,-0.1204 v -1.08371 h -0.36124 c -0.0477,0 -0.091,-0.0282 -0.11018,-0.072 -0.0193,-0.0436 -0.0108,-0.0945 0.0214,-0.12982 l 1.32417,-1.44493 c 0.0229,-0.0249 0.0561,-0.0391 0.0892,-0.039 0.0329,6e-5 0.0657,0.0142 0.0884,0.039 l 1.32488,1.44493 c 0.0322,0.0352 0.0407,0.0862 0.0214,0.12982 -0.0192,0.0438 -0.0624,0.072 -0.11018,0.072 h -0.36123 v 1.08371 c -2e-5,0.0665 -0.0539,0.1204 -0.12043,0.1204 z m -1.56535,-0.24082 h 1.44493 v -1.0837 c 0,-0.0666 0.0539,-0.12041 0.1204,-0.12041 h 0.2079 l -1.05113,-1.14637 -1.05055,1.14637 h 0.20802 c 0.0665,0 0.1204,0.0539 0.1204,0.12041 4e-5,0 4e-5,1.0837 3e-5,1.0837 z"
         inkscape:connector-curvature="0"
         style="stroke-width:0.01200579" />
      <g
         id="g2224"
         transform="translate(137.17657,-40.511418)">
        <path
           inkscape:connector-curvature="0"
           id="path2220"
           d="m -46.312409,176.42556 3.085554,-1.19994"
           style="fill:none;stroke:#000000;stroke-width:1.68709648;stroke-linecap:round;stroke-linejoin:miter;stroke-miterlimit:4;stroke-dasharray:none;stroke-opacity:1" />
        <path
           style="fill:none;stroke:#000000;stroke-width:1.68709648;stroke-linecap:round;stroke-linejoin:miter;stroke-miterlimit:4;stroke-dasharray:none;stroke-opacity:1"
           d="m -40.141301,176.42556 -3.085554,-1.19994"
           id="path2222"
           inkscape:connector-curvature="0" />
      </g>
      <g
         transform="matrix(1,0,0,-1,137.17657,320.13558)"
         id="g2230">
        <path
           style="fill:none;stroke:#000000;stroke-width:1.68709648;stroke-linecap:round;stroke-linejoin:miter;stroke-miterlimit:4;stroke-dasharray:none;stroke-opacity:1"
           d="m -46.312409,176.42556 3.085554,-1.19994"
           id="path2226"
           inkscape:connector-curvature="0" />
        <path
           inkscape:connector-curvature="0"
           id="path2228"
           d="m -40.141301,176.42556 -3.085554,-1.19994"
           style="fill:none;stroke:#000000;stroke-width:1.68709648;stroke-linecap:round;stroke-linejoin:miter;stroke-miterlimit:4;stroke-dasharray:none;stroke-opacity:1" />
      </g>
      <g
         id="g2250"
         transform="translate(-0.45111002,20.552455)">
        <circle
           r="0.42976248"
           cy="179.56636"
           cx="92.298698"
           id="circle2236"
           style="fill:#ffffff;fill-opacity:1;stroke:#000000;stroke-width:0.140475;stroke-linecap:round;stroke-linejoin:round;stroke-miterlimit:4;stroke-dasharray:none;stroke-dashoffset:0;stroke-opacity:1;paint-order:normal" />
        <circle
           style="fill:#ffffff;fill-opacity:1;stroke:#000000;stroke-width:0.140475;stroke-linecap:round;stroke-linejoin:round;stroke-miterlimit:4;stroke-dasharray:none;stroke-dashoffset:0;stroke-opacity:1;paint-order:normal"
           id="circle2238"
           cx="94.415367"
           cy="179.56636"
           r="0.42976248" />
        <circle
           r="0.42976248"
           cy="179.56636"
           cx="96.532036"
           id="circle2240"
           style="fill:#ffffff;fill-opacity:1;stroke:#000000;stroke-width:0.140475;stroke-linecap:round;stroke-linejoin:round;stroke-miterlimit:4;stroke-dasharray:none;stroke-dashoffset:0;stroke-opacity:1;paint-order:normal" />
        <circle
           style="fill:#ffffff;fill-opacity:1;stroke:#000000;stroke-width:0.140475;stroke-linecap:round;stroke-linejoin:round;stroke-miterlimit:4;stroke-dasharray:none;stroke-dashoffset:0;stroke-opacity:1;paint-order:normal"
           id="circle2242"
           cx="95.473701"
           cy="181.15384"
           r="0.42976248" />
        <circle
           r="0.42976248"
           cy="181.15384"
           cx="93.357033"
           id="circle2244"
           style="fill:#ffffff;fill-opacity:1;stroke:#000000;stroke-width:0.140475;stroke-linecap:round;stroke-linejoin:round;stroke-miterlimit:4;stroke-dasharray:none;stroke-dashoffset:0;stroke-opacity:1;paint-order:normal" />
        <circle
           r="0.42976248"
           cy="177.97888"
           cx="95.473701"
           id="circle2246"
           style="fill:#ffffff;fill-opacity:1;stroke:#000000;stroke-width:0.140475;stroke-linecap:round;stroke-linejoin:round;stroke-miterlimit:4;stroke-dasharray:none;stroke-dashoffset:0;stroke-opacity:1;paint-order:normal" />
        <circle
           style="fill:#ffffff;fill-opacity:1;stroke:#000000;stroke-width:0.140475;stroke-linecap:round;stroke-linejoin:round;stroke-miterlimit:4;stroke-dasharray:none;stroke-dashoffset:0;stroke-opacity:1;paint-order:normal"
           id="circle2248"
           cx="93.357033"
           cy="177.97888"
           r="0.42976248" />
      </g>
      <g
         id="g2324"
         transform="translate(13.60712,18.262266)">
        <circle
           style="fill:#ffffff;fill-opacity:1;stroke:#000000;stroke-width:0.140475;stroke-linecap:round;stroke-linejoin:round;stroke-miterlimit:4;stroke-dasharray:none;stroke-dashoffset:0;stroke-opacity:1;paint-order:normal"
           id="circle2252"
           cx="76.652969"
           cy="56.610432"
           r="0.42976248" />
        <circle
           r="0.42976248"
           cy="56.610432"
           cx="78.769638"
           id="circle2254"
           style="fill:#ffffff;fill-opacity:1;stroke:#000000;stroke-width:0.140475;stroke-linecap:round;stroke-linejoin:round;stroke-miterlimit:4;stroke-dasharray:none;stroke-dashoffset:0;stroke-opacity:1;paint-order:normal" />
        <circle
           style="fill:#ffffff;fill-opacity:1;stroke:#000000;stroke-width:0.140475;stroke-linecap:round;stroke-linejoin:round;stroke-miterlimit:4;stroke-dasharray:none;stroke-dashoffset:0;stroke-opacity:1;paint-order:normal"
           id="circle2256"
           cx="80.886307"
           cy="56.610432"
           r="0.42976248" />
        <circle
           r="0.42976248"
           cy="55.02293"
           cx="75.594635"
           id="circle2258"
           style="fill:#ffffff;fill-opacity:1;stroke:#000000;stroke-width:0.140475;stroke-linecap:round;stroke-linejoin:round;stroke-miterlimit:4;stroke-dasharray:none;stroke-dashoffset:0;stroke-opacity:1;paint-order:normal" />
        <circle
           style="fill:#ffffff;fill-opacity:1;stroke:#000000;stroke-width:0.140475;stroke-linecap:round;stroke-linejoin:round;stroke-miterlimit:4;stroke-dasharray:none;stroke-dashoffset:0;stroke-opacity:1;paint-order:normal"
           id="circle2260"
           cx="77.711304"
           cy="55.02293"
           r="0.42976248" />
        <circle
           r="0.42976248"
           cy="55.02293"
           cx="79.827972"
           id="circle2262"
           style="fill:#ffffff;fill-opacity:1;stroke:#000000;stroke-width:0.140475;stroke-linecap:round;stroke-linejoin:round;stroke-miterlimit:4;stroke-dasharray:none;stroke-dashoffset:0;stroke-opacity:1;paint-order:normal" />
        <circle
           style="fill:#ffffff;fill-opacity:1;stroke:#000000;stroke-width:0.140475;stroke-linecap:round;stroke-linejoin:round;stroke-miterlimit:4;stroke-dasharray:none;stroke-dashoffset:0;stroke-opacity:1;paint-order:normal"
           id="circle2264"
           cx="74.536301"
           cy="53.435429"
           r="0.42976248" />
        <circle
           r="0.42976248"
           cy="53.435429"
           cx="76.652969"
           id="circle2266"
           style="fill:#ffffff;fill-opacity:1;stroke:#000000;stroke-width:0.140475;stroke-linecap:round;stroke-linejoin:round;stroke-miterlimit:4;stroke-dasharray:none;stroke-dashoffset:0;stroke-opacity:1;paint-order:normal" />
        <circle
           style="fill:#ffffff;fill-opacity:1;stroke:#000000;stroke-width:0.140475;stroke-linecap:round;stroke-linejoin:round;stroke-miterlimit:4;stroke-dasharray:none;stroke-dashoffset:0;stroke-opacity:1;paint-order:normal"
           id="circle2268"
           cx="78.769638"
           cy="53.435429"
           r="0.42976248" />
        <circle
           r="0.42976248"
           cy="51.847927"
           cx="73.477966"
           id="circle2270"
           style="fill:#ffffff;fill-opacity:1;stroke:#000000;stroke-width:0.140475;stroke-linecap:round;stroke-linejoin:round;stroke-miterlimit:4;stroke-dasharray:none;stroke-dashoffset:0;stroke-opacity:1;paint-order:normal" />
        <circle
           style="fill:#ffffff;fill-opacity:1;stroke:#000000;stroke-width:0.140475;stroke-linecap:round;stroke-linejoin:round;stroke-miterlimit:4;stroke-dasharray:none;stroke-dashoffset:0;stroke-opacity:1;paint-order:normal"
           id="circle2272"
           cx="75.594635"
           cy="51.847927"
           r="0.42976248" />
        <circle
           r="0.42976248"
           cy="51.847927"
           cx="77.711304"
           id="circle2274"
           style="fill:#ffffff;fill-opacity:1;stroke:#000000;stroke-width:0.140475;stroke-linecap:round;stroke-linejoin:round;stroke-miterlimit:4;stroke-dasharray:none;stroke-dashoffset:0;stroke-opacity:1;paint-order:normal" />
        <circle
           r="0.42976248"
           cy="56.610432"
           cx="83.002975"
           id="circle2276"
           style="fill:#ffffff;fill-opacity:1;stroke:#000000;stroke-width:0.140475;stroke-linecap:round;stroke-linejoin:round;stroke-miterlimit:4;stroke-dasharray:none;stroke-dashoffset:0;stroke-opacity:1;paint-order:normal" />
        <circle
           style="fill:#ffffff;fill-opacity:1;stroke:#000000;stroke-width:0.140475;stroke-linecap:round;stroke-linejoin:round;stroke-miterlimit:4;stroke-dasharray:none;stroke-dashoffset:0;stroke-opacity:1;paint-order:normal"
           id="circle2278"
           cx="85.119644"
           cy="56.610432"
           r="0.42976248" />
        <circle
           r="0.42976248"
           cy="56.610432"
           cx="87.236313"
           id="circle2280"
           style="fill:#ffffff;fill-opacity:1;stroke:#000000;stroke-width:0.140475;stroke-linecap:round;stroke-linejoin:round;stroke-miterlimit:4;stroke-dasharray:none;stroke-dashoffset:0;stroke-opacity:1;paint-order:normal" />
        <circle
           style="fill:#ffffff;fill-opacity:1;stroke:#000000;stroke-width:0.140475;stroke-linecap:round;stroke-linejoin:round;stroke-miterlimit:4;stroke-dasharray:none;stroke-dashoffset:0;stroke-opacity:1;paint-order:normal"
           id="circle2282"
           cx="81.944641"
           cy="55.02293"
           r="0.42976248" />
        <circle
           r="0.42976248"
           cy="55.02293"
           cx="84.06131"
           id="circle2284"
           style="fill:#ffffff;fill-opacity:1;stroke:#000000;stroke-width:0.140475;stroke-linecap:round;stroke-linejoin:round;stroke-miterlimit:4;stroke-dasharray:none;stroke-dashoffset:0;stroke-opacity:1;paint-order:normal" />
        <circle
           style="fill:#ffffff;fill-opacity:1;stroke:#000000;stroke-width:0.140475;stroke-linecap:round;stroke-linejoin:round;stroke-miterlimit:4;stroke-dasharray:none;stroke-dashoffset:0;stroke-opacity:1;paint-order:normal"
           id="circle2286"
           cx="86.177979"
           cy="55.02293"
           r="0.42976248" />
        <circle
           r="0.42976248"
           cy="53.435429"
           cx="80.886307"
           id="circle2288"
           style="fill:#ffffff;fill-opacity:1;stroke:#000000;stroke-width:0.140475;stroke-linecap:round;stroke-linejoin:round;stroke-miterlimit:4;stroke-dasharray:none;stroke-dashoffset:0;stroke-opacity:1;paint-order:normal" />
        <circle
           style="fill:#ffffff;fill-opacity:1;stroke:#000000;stroke-width:0.140475;stroke-linecap:round;stroke-linejoin:round;stroke-miterlimit:4;stroke-dasharray:none;stroke-dashoffset:0;stroke-opacity:1;paint-order:normal"
           id="circle2290"
           cx="83.002975"
           cy="53.435429"
           r="0.42976248" />
        <circle
           r="0.42976248"
           cy="53.435429"
           cx="85.119644"
           id="circle2292"
           style="fill:#ffffff;fill-opacity:1;stroke:#000000;stroke-width:0.140475;stroke-linecap:round;stroke-linejoin:round;stroke-miterlimit:4;stroke-dasharray:none;stroke-dashoffset:0;stroke-opacity:1;paint-order:normal" />
        <circle
           style="fill:#ffffff;fill-opacity:1;stroke:#000000;stroke-width:0.140475;stroke-linecap:round;stroke-linejoin:round;stroke-miterlimit:4;stroke-dasharray:none;stroke-dashoffset:0;stroke-opacity:1;paint-order:normal"
           id="circle2294"
           cx="79.827972"
           cy="51.847927"
           r="0.42976248" />
        <circle
           r="0.42976248"
           cy="51.847927"
           cx="81.944641"
           id="circle2296"
           style="fill:#ffffff;fill-opacity:1;stroke:#000000;stroke-width:0.140475;stroke-linecap:round;stroke-linejoin:round;stroke-miterlimit:4;stroke-dasharray:none;stroke-dashoffset:0;stroke-opacity:1;paint-order:normal" />
        <circle
           style="fill:#ffffff;fill-opacity:1;stroke:#000000;stroke-width:0.140475;stroke-linecap:round;stroke-linejoin:round;stroke-miterlimit:4;stroke-dasharray:none;stroke-dashoffset:0;stroke-opacity:1;paint-order:normal"
           id="circle2298"
           cx="84.06131"
           cy="51.847927"
           r="0.42976248" />
        <circle
           r="0.42976248"
           cy="50.260426"
           cx="72.419632"
           id="circle2300"
           style="fill:#ffffff;fill-opacity:1;stroke:#000000;stroke-width:0.140475;stroke-linecap:round;stroke-linejoin:round;stroke-miterlimit:4;stroke-dasharray:none;stroke-dashoffset:0;stroke-opacity:1;paint-order:normal" />
        <circle
           style="fill:#ffffff;fill-opacity:1;stroke:#000000;stroke-width:0.140475;stroke-linecap:round;stroke-linejoin:round;stroke-miterlimit:4;stroke-dasharray:none;stroke-dashoffset:0;stroke-opacity:1;paint-order:normal"
           id="circle2302"
           cx="74.536301"
           cy="50.260426"
           r="0.42976248" />
        <circle
           r="0.42976248"
           cy="50.260426"
           cx="76.652969"
           id="circle2304"
           style="fill:#ffffff;fill-opacity:1;stroke:#000000;stroke-width:0.140475;stroke-linecap:round;stroke-linejoin:round;stroke-miterlimit:4;stroke-dasharray:none;stroke-dashoffset:0;stroke-opacity:1;paint-order:normal" />
        <circle
           style="fill:#ffffff;fill-opacity:1;stroke:#000000;stroke-width:0.140475;stroke-linecap:round;stroke-linejoin:round;stroke-miterlimit:4;stroke-dasharray:none;stroke-dashoffset:0;stroke-opacity:1;paint-order:normal"
           id="circle2306"
           cx="78.769638"
           cy="50.260426"
           r="0.42976248" />
        <circle
           r="0.42976248"
           cy="50.260426"
           cx="80.886307"
           id="circle2308"
           style="fill:#ffffff;fill-opacity:1;stroke:#000000;stroke-width:0.140475;stroke-linecap:round;stroke-linejoin:round;stroke-miterlimit:4;stroke-dasharray:none;stroke-dashoffset:0;stroke-opacity:1;paint-order:normal" />
        <circle
           style="fill:#ffffff;fill-opacity:1;stroke:#000000;stroke-width:0.140475;stroke-linecap:round;stroke-linejoin:round;stroke-miterlimit:4;stroke-dasharray:none;stroke-dashoffset:0;stroke-opacity:1;paint-order:normal"
           id="circle2310"
           cx="83.002975"
           cy="50.260426"
           r="0.42976248" />
        <circle
           style="fill:#ffffff;fill-opacity:1;stroke:#000000;stroke-width:0.140475;stroke-linecap:round;stroke-linejoin:round;stroke-miterlimit:4;stroke-dasharray:none;stroke-dashoffset:0;stroke-opacity:1;paint-order:normal"
           id="circle2312"
           cx="77.711304"
           cy="58.197933"
           r="0.42976248" />
        <circle
           r="0.42976248"
           cy="58.197933"
           cx="79.827972"
           id="circle2314"
           style="fill:#ffffff;fill-opacity:1;stroke:#000000;stroke-width:0.140475;stroke-linecap:round;stroke-linejoin:round;stroke-miterlimit:4;stroke-dasharray:none;stroke-dashoffset:0;stroke-opacity:1;paint-order:normal" />
        <circle
           style="fill:#ffffff;fill-opacity:1;stroke:#000000;stroke-width:0.140475;stroke-linecap:round;stroke-linejoin:round;stroke-miterlimit:4;stroke-dasharray:none;stroke-dashoffset:0;stroke-opacity:1;paint-order:normal"
           id="circle2316"
           cx="81.944641"
           cy="58.197933"
           r="0.42976248" />
        <circle
           r="0.42976248"
           cy="58.197933"
           cx="84.06131"
           id="circle2318"
           style="fill:#ffffff;fill-opacity:1;stroke:#000000;stroke-width:0.140475;stroke-linecap:round;stroke-linejoin:round;stroke-miterlimit:4;stroke-dasharray:none;stroke-dashoffset:0;stroke-opacity:1;paint-order:normal" />
        <circle
           style="fill:#ffffff;fill-opacity:1;stroke:#000000;stroke-width:0.140475;stroke-linecap:round;stroke-linejoin:round;stroke-miterlimit:4;stroke-dasharray:none;stroke-dashoffset:0;stroke-opacity:1;paint-order:normal"
           id="circle2320"
           cx="86.177979"
           cy="58.197933"
           r="0.42976248" />
        <circle
           r="0.42976248"
           cy="58.197933"
           cx="88.294647"
           id="circle2322"
           style="fill:#ffffff;fill-opacity:1;stroke:#000000;stroke-width:0.140475;stroke-linecap:round;stroke-linejoin:round;stroke-miterlimit:4;stroke-dasharray:none;stroke-dashoffset:0;stroke-opacity:1;paint-order:normal" />
      </g>
      <g
         aria-label="MADALOZZO"
         style="font-style:normal;font-weight:normal;font-size:4.23333311px;line-height:1.25;font-family:sans-serif;letter-spacing:0px;word-spacing:0px;fill:#000000;fill-opacity:1;stroke:none;stroke-width:0.26458332"
         id="text963">
        <path
           d="m 68.502245,59.834309 h -0.6477 v 2.963333 h 0.4064 v -2.0955 l 0.347134,2.0955 h 0.440266 l 0.321734,-2.125133 v 2.125133 h 0.440266 v -2.963333 h -0.6477 l -0.3175,2.103966 z"
           style="font-style:normal;font-variant:normal;font-weight:normal;font-stretch:normal;font-family:'Bebas Neue';-inkscape-font-specification:'Bebas Neue';stroke-width:0.26458332"
           id="path965" />
        <path
           d="m 71.181939,59.834309 h -0.681567 l -0.474133,2.963333 h 0.427567 l 0.08043,-0.537634 h 0.5715 l 0.08043,0.537634 h 0.4699 z m -0.647703,2.425699 0.283636,-1.900766 0.287864,1.900766"
           style="font-style:normal;font-variant:normal;font-weight:normal;font-stretch:normal;font-family:'Bebas Neue';-inkscape-font-specification:'Bebas Neue';stroke-width:0.26458332"
           id="path967"
           inkscape:connector-curvature="0"
           sodipodi:nodetypes="cccccccccczc" />
        <path
           d="m 71.871971,62.797642 h 0.736599 c 0.465667,0 0.694267,-0.258234 0.694267,-0.732367 v -1.4986 c 0,-0.474133 -0.2286,-0.732366 -0.694267,-0.732366 h -0.736599 z m 0.728133,-2.54 c 0.148166,0 0.237066,0.0762 0.237066,0.287867 v 1.540933 c 0,0.211666 -0.0889,0.287866 -0.237066,0.287866 h -0.262467 v -2.116666 z"
           style="font-style:normal;font-variant:normal;font-weight:normal;font-stretch:normal;font-family:'Bebas Neue';-inkscape-font-specification:'Bebas Neue';stroke-width:0.26458332"
           id="path969" />
        <path
           d="m 74.62786,59.834309 h -0.681566 l -0.474133,2.963333 h 0.427566 l 0.08043,-0.537634 h 0.5715 l 0.08043,0.537634 h 0.4699 z m -0.364066,0.524933 0.287863,1.900766 h -0.5715 z"
           style="font-style:normal;font-variant:normal;font-weight:normal;font-stretch:normal;font-family:'Bebas Neue';-inkscape-font-specification:'Bebas Neue';stroke-width:0.26458332"
           id="path971"
           inkscape:connector-curvature="0"
           sodipodi:nodetypes="ccccccccczccz" />
        <path
           d="m 75.317892,62.797642 h 1.2319 v -0.423334 h -0.766233 v -2.539999 h -0.465667 z"
           style="font-style:normal;font-variant:normal;font-weight:normal;font-stretch:normal;font-family:'Bebas Neue';-inkscape-font-specification:'Bebas Neue';stroke-width:0.26458332"
           id="path973" />
        <path
           d="m 77.180553,60.515875 c 0,-0.211666 0.09313,-0.2921 0.2413,-0.2921 0.148167,0 0.2413,0.08043 0.2413,0.2921 v 1.6002 c 0,0.211667 -0.09313,0.2921 -0.2413,0.2921 -0.148166,0 -0.2413,-0.08043 -0.2413,-0.2921 z m -0.465666,1.570567 c 0,0.474133 0.249766,0.745066 0.706966,0.745066 0.4572,0 0.706967,-0.270933 0.706967,-0.745066 v -1.540933 c 0,-0.474134 -0.249767,-0.745067 -0.706967,-0.745067 -0.4572,0 -0.706966,0.270933 -0.706966,0.745067 z"
           style="font-style:normal;font-variant:normal;font-weight:normal;font-stretch:normal;font-family:'Bebas Neue';-inkscape-font-specification:'Bebas Neue';stroke-width:0.26458332"
           id="path975" />
        <path
           d="m 78.399753,59.834309 v 0.423333 h 0.842433 l -0.884767,2.125133 v 0.414867 h 1.363134 v -0.423334 h -0.884767 l 0.884767,-2.125133 v -0.414866 z"
           style="font-style:normal;font-variant:normal;font-weight:normal;font-stretch:normal;font-family:'Bebas Neue';-inkscape-font-specification:'Bebas Neue';stroke-width:0.26458332"
           id="path977" />
        <path
           d="m 79.966082,59.834309 v 0.423333 h 0.842433 l -0.884767,2.125133 v 0.414867 h 1.363134 v -0.423334 h -0.884767 l 0.884767,-2.125133 v -0.414866 z"
           style="font-style:normal;font-variant:normal;font-weight:normal;font-stretch:normal;font-family:'Bebas Neue';-inkscape-font-specification:'Bebas Neue';stroke-width:0.26458332"
           id="path979" />
        <path
           d="m 81.989611,60.515875 c 0,-0.211666 0.09313,-0.2921 0.2413,-0.2921 0.148166,0 0.2413,0.08043 0.2413,0.2921 v 1.6002 c 0,0.211667 -0.09313,0.2921 -0.2413,0.2921 -0.148167,0 -0.2413,-0.08043 -0.2413,-0.2921 z m -0.465667,1.570567 c 0,0.474133 0.249767,0.745066 0.706967,0.745066 0.4572,0 0.706966,-0.270933 0.706966,-0.745066 v -1.540933 c 0,-0.474134 -0.249766,-0.745067 -0.706966,-0.745067 -0.4572,0 -0.706967,0.270933 -0.706967,0.745067 z"
           style="font-style:normal;font-variant:normal;font-weight:normal;font-stretch:normal;font-family:'Bebas Neue';-inkscape-font-specification:'Bebas Neue';stroke-width:0.26458332"
           id="path981" />
      </g>
    </g>
  </g>
</svg>
